<?xml version="1.0" encoding="UTF-8" standalone="no"?><svg xmlns="http://www.w3.org/2000/svg" xmlns:xlink="http://www.w3.org/1999/xlink" contentStyleType="text/css" height="1152px" preserveAspectRatio="none" style="width:2157px;height:1152px;background:#FFFFFF;" version="1.1" viewBox="0 0 2157 1152" width="2157px" zoomAndPan="magnify"><defs/><g><!--MD5=[00006b40d04256eb58447385d3fb8dab]
class join_game_request--><g id="elem_join_game_request"><rect fill="#F1F1F1" height="48" id="join_game_request" rx="3.5" ry="3.5" style="stroke:#181818;stroke-width:0.5;" width="167" x="1068" y="1097"/><ellipse cx="1083" cy="1113" fill="#ADD1B2" rx="11" ry="11" style="stroke:#181818;stroke-width:1.0;"/><path d="M1085.3438,1108.6719 C1084.4063,1108.2344 1083.8125,1108.0938 1082.9375,1108.0938 C1080.3125,1108.0938 1078.3125,1110.1719 1078.3125,1112.8906 L1078.3125,1114.0156 C1078.3125,1116.5938 1080.4219,1118.4844 1083.3125,1118.4844 C1084.5313,1118.4844 1085.6875,1118.1875 1086.4375,1117.6406 C1087.0156,1117.2344 1087.3438,1116.7813 1087.3438,1116.3906 C1087.3438,1115.9375 1086.9531,1115.5469 1086.4844,1115.5469 C1086.2656,1115.5469 1086.0625,1115.625 1085.875,1115.8125 C1085.4219,1116.2969 1085.4219,1116.2969 1085.2344,1116.3906 C1084.8125,1116.6563 1084.125,1116.7813 1083.3594,1116.7813 C1081.3125,1116.7813 1080.0156,1115.6875 1080.0156,1113.9844 L1080.0156,1112.8906 C1080.0156,1111.1094 1081.2656,1109.7969 1083,1109.7969 C1083.5781,1109.7969 1084.1875,1109.9531 1084.6563,1110.2031 C1085.1406,1110.4844 1085.3125,1110.7031 1085.4063,1111.1094 C1085.4688,1111.5156 1085.5,1111.6406 1085.6406,1111.7656 C1085.7813,1111.9063 1086.0156,1112.0156 1086.2344,1112.0156 C1086.5,1112.0156 1086.7656,1111.875 1086.9375,1111.6563 C1087.0469,1111.5 1087.0781,1111.3125 1087.0781,1110.8906 L1087.0781,1109.4688 C1087.0781,1109.0313 1087.0625,1108.9063 1086.9688,1108.75 C1086.8125,1108.4844 1086.5313,1108.3438 1086.2344,1108.3438 C1085.9375,1108.3438 1085.7344,1108.4375 1085.5156,1108.75 L1085.3438,1108.6719 Z " fill="#000000"/><text fill="#000000" font-family="sans-serif" font-size="14" lengthAdjust="spacing" textLength="135" x="1097" y="1117.8467">join_game_request</text><line style="stroke:#181818;stroke-width:0.5;" x1="1069" x2="1234" y1="1129" y2="1129"/><line style="stroke:#181818;stroke-width:0.5;" x1="1069" x2="1234" y1="1137" y2="1137"/></g><!--MD5=[70335e1947a3fd4c54218fa96d5abede]
class start_game_request--><g id="elem_start_game_request"><rect fill="#F1F1F1" height="48" id="start_game_request" rx="3.5" ry="3.5" style="stroke:#181818;stroke-width:0.5;" width="176" x="1270.5" y="1097"/><ellipse cx="1285.5" cy="1113" fill="#ADD1B2" rx="11" ry="11" style="stroke:#181818;stroke-width:1.0;"/><path d="M1287.8438,1108.6719 C1286.9063,1108.2344 1286.3125,1108.0938 1285.4375,1108.0938 C1282.8125,1108.0938 1280.8125,1110.1719 1280.8125,1112.8906 L1280.8125,1114.0156 C1280.8125,1116.5938 1282.9219,1118.4844 1285.8125,1118.4844 C1287.0313,1118.4844 1288.1875,1118.1875 1288.9375,1117.6406 C1289.5156,1117.2344 1289.8438,1116.7813 1289.8438,1116.3906 C1289.8438,1115.9375 1289.4531,1115.5469 1288.9844,1115.5469 C1288.7656,1115.5469 1288.5625,1115.625 1288.375,1115.8125 C1287.9219,1116.2969 1287.9219,1116.2969 1287.7344,1116.3906 C1287.3125,1116.6563 1286.625,1116.7813 1285.8594,1116.7813 C1283.8125,1116.7813 1282.5156,1115.6875 1282.5156,1113.9844 L1282.5156,1112.8906 C1282.5156,1111.1094 1283.7656,1109.7969 1285.5,1109.7969 C1286.0781,1109.7969 1286.6875,1109.9531 1287.1563,1110.2031 C1287.6406,1110.4844 1287.8125,1110.7031 1287.9063,1111.1094 C1287.9688,1111.5156 1288,1111.6406 1288.1406,1111.7656 C1288.2813,1111.9063 1288.5156,1112.0156 1288.7344,1112.0156 C1289,1112.0156 1289.2656,1111.875 1289.4375,1111.6563 C1289.5469,1111.5 1289.5781,1111.3125 1289.5781,1110.8906 L1289.5781,1109.4688 C1289.5781,1109.0313 1289.5625,1108.9063 1289.4688,1108.75 C1289.3125,1108.4844 1289.0313,1108.3438 1288.7344,1108.3438 C1288.4375,1108.3438 1288.2344,1108.4375 1288.0156,1108.75 L1287.8438,1108.6719 Z " fill="#000000"/><text fill="#000000" font-family="sans-serif" font-size="14" lengthAdjust="spacing" textLength="144" x="1299.5" y="1117.8467">start_game_request</text><line style="stroke:#181818;stroke-width:0.5;" x1="1271.5" x2="1445.5" y1="1129" y2="1129"/><line style="stroke:#181818;stroke-width:0.5;" x1="1271.5" x2="1445.5" y1="1137" y2="1137"/></g><!--MD5=[b5ad726f7e76edc1788a3bfb6eda2845]
class make_bet_request--><g id="elem_make_bet_request"><rect fill="#F1F1F1" height="48" id="make_bet_request" rx="3.5" ry="3.5" style="stroke:#181818;stroke-width:0.5;" width="167" x="1482" y="1097"/><ellipse cx="1497" cy="1113" fill="#ADD1B2" rx="11" ry="11" style="stroke:#181818;stroke-width:1.0;"/><path d="M1499.3438,1108.6719 C1498.4063,1108.2344 1497.8125,1108.0938 1496.9375,1108.0938 C1494.3125,1108.0938 1492.3125,1110.1719 1492.3125,1112.8906 L1492.3125,1114.0156 C1492.3125,1116.5938 1494.4219,1118.4844 1497.3125,1118.4844 C1498.5313,1118.4844 1499.6875,1118.1875 1500.4375,1117.6406 C1501.0156,1117.2344 1501.3438,1116.7813 1501.3438,1116.3906 C1501.3438,1115.9375 1500.9531,1115.5469 1500.4844,1115.5469 C1500.2656,1115.5469 1500.0625,1115.625 1499.875,1115.8125 C1499.4219,1116.2969 1499.4219,1116.2969 1499.2344,1116.3906 C1498.8125,1116.6563 1498.125,1116.7813 1497.3594,1116.7813 C1495.3125,1116.7813 1494.0156,1115.6875 1494.0156,1113.9844 L1494.0156,1112.8906 C1494.0156,1111.1094 1495.2656,1109.7969 1497,1109.7969 C1497.5781,1109.7969 1498.1875,1109.9531 1498.6563,1110.2031 C1499.1406,1110.4844 1499.3125,1110.7031 1499.4063,1111.1094 C1499.4688,1111.5156 1499.5,1111.6406 1499.6406,1111.7656 C1499.7813,1111.9063 1500.0156,1112.0156 1500.2344,1112.0156 C1500.5,1112.0156 1500.7656,1111.875 1500.9375,1111.6563 C1501.0469,1111.5 1501.0781,1111.3125 1501.0781,1110.8906 L1501.0781,1109.4688 C1501.0781,1109.0313 1501.0625,1108.9063 1500.9688,1108.75 C1500.8125,1108.4844 1500.5313,1108.3438 1500.2344,1108.3438 C1499.9375,1108.3438 1499.7344,1108.4375 1499.5156,1108.75 L1499.3438,1108.6719 Z " fill="#000000"/><text fill="#000000" font-family="sans-serif" font-size="14" lengthAdjust="spacing" textLength="135" x="1511" y="1117.8467">make_bet_request</text><line style="stroke:#181818;stroke-width:0.5;" x1="1483" x2="1648" y1="1129" y2="1129"/><line style="stroke:#181818;stroke-width:0.5;" x1="1483" x2="1648" y1="1137" y2="1137"/></g><!--MD5=[63b18b909bf4bd0c9e810c82e0852a07]
class hit_request--><g id="elem_hit_request"><rect fill="#F1F1F1" height="48" id="hit_request" rx="3.5" ry="3.5" style="stroke:#181818;stroke-width:0.5;" width="114" x="1684.5" y="1097"/><ellipse cx="1699.5" cy="1113" fill="#ADD1B2" rx="11" ry="11" style="stroke:#181818;stroke-width:1.0;"/><path d="M1701.8438,1108.6719 C1700.9063,1108.2344 1700.3125,1108.0938 1699.4375,1108.0938 C1696.8125,1108.0938 1694.8125,1110.1719 1694.8125,1112.8906 L1694.8125,1114.0156 C1694.8125,1116.5938 1696.9219,1118.4844 1699.8125,1118.4844 C1701.0313,1118.4844 1702.1875,1118.1875 1702.9375,1117.6406 C1703.5156,1117.2344 1703.8438,1116.7813 1703.8438,1116.3906 C1703.8438,1115.9375 1703.4531,1115.5469 1702.9844,1115.5469 C1702.7656,1115.5469 1702.5625,1115.625 1702.375,1115.8125 C1701.9219,1116.2969 1701.9219,1116.2969 1701.7344,1116.3906 C1701.3125,1116.6563 1700.625,1116.7813 1699.8594,1116.7813 C1697.8125,1116.7813 1696.5156,1115.6875 1696.5156,1113.9844 L1696.5156,1112.8906 C1696.5156,1111.1094 1697.7656,1109.7969 1699.5,1109.7969 C1700.0781,1109.7969 1700.6875,1109.9531 1701.1563,1110.2031 C1701.6406,1110.4844 1701.8125,1110.7031 1701.9063,1111.1094 C1701.9688,1111.5156 1702,1111.6406 1702.1406,1111.7656 C1702.2813,1111.9063 1702.5156,1112.0156 1702.7344,1112.0156 C1703,1112.0156 1703.2656,1111.875 1703.4375,1111.6563 C1703.5469,1111.5 1703.5781,1111.3125 1703.5781,1110.8906 L1703.5781,1109.4688 C1703.5781,1109.0313 1703.5625,1108.9063 1703.4688,1108.75 C1703.3125,1108.4844 1703.0313,1108.3438 1702.7344,1108.3438 C1702.4375,1108.3438 1702.2344,1108.4375 1702.0156,1108.75 L1701.8438,1108.6719 Z " fill="#000000"/><text fill="#000000" font-family="sans-serif" font-size="14" lengthAdjust="spacing" textLength="82" x="1713.5" y="1117.8467">hit_request</text><line style="stroke:#181818;stroke-width:0.5;" x1="1685.5" x2="1797.5" y1="1129" y2="1129"/><line style="stroke:#181818;stroke-width:0.5;" x1="1685.5" x2="1797.5" y1="1137" y2="1137"/></g><!--MD5=[df09466152eb637cefc7b16ff72fbb7e]
class stand_request--><g id="elem_stand_request"><rect fill="#F1F1F1" height="48" id="stand_request" rx="3.5" ry="3.5" style="stroke:#181818;stroke-width:0.5;" width="134" x="1833.5" y="1097"/><ellipse cx="1848.5" cy="1113" fill="#ADD1B2" rx="11" ry="11" style="stroke:#181818;stroke-width:1.0;"/><path d="M1850.8438,1108.6719 C1849.9063,1108.2344 1849.3125,1108.0938 1848.4375,1108.0938 C1845.8125,1108.0938 1843.8125,1110.1719 1843.8125,1112.8906 L1843.8125,1114.0156 C1843.8125,1116.5938 1845.9219,1118.4844 1848.8125,1118.4844 C1850.0313,1118.4844 1851.1875,1118.1875 1851.9375,1117.6406 C1852.5156,1117.2344 1852.8438,1116.7813 1852.8438,1116.3906 C1852.8438,1115.9375 1852.4531,1115.5469 1851.9844,1115.5469 C1851.7656,1115.5469 1851.5625,1115.625 1851.375,1115.8125 C1850.9219,1116.2969 1850.9219,1116.2969 1850.7344,1116.3906 C1850.3125,1116.6563 1849.625,1116.7813 1848.8594,1116.7813 C1846.8125,1116.7813 1845.5156,1115.6875 1845.5156,1113.9844 L1845.5156,1112.8906 C1845.5156,1111.1094 1846.7656,1109.7969 1848.5,1109.7969 C1849.0781,1109.7969 1849.6875,1109.9531 1850.1563,1110.2031 C1850.6406,1110.4844 1850.8125,1110.7031 1850.9063,1111.1094 C1850.9688,1111.5156 1851,1111.6406 1851.1406,1111.7656 C1851.2813,1111.9063 1851.5156,1112.0156 1851.7344,1112.0156 C1852,1112.0156 1852.2656,1111.875 1852.4375,1111.6563 C1852.5469,1111.5 1852.5781,1111.3125 1852.5781,1110.8906 L1852.5781,1109.4688 C1852.5781,1109.0313 1852.5625,1108.9063 1852.4688,1108.75 C1852.3125,1108.4844 1852.0313,1108.3438 1851.7344,1108.3438 C1851.4375,1108.3438 1851.2344,1108.4375 1851.0156,1108.75 L1850.8438,1108.6719 Z " fill="#000000"/><text fill="#000000" font-family="sans-serif" font-size="14" lengthAdjust="spacing" textLength="102" x="1862.5" y="1117.8467">stand_request</text><line style="stroke:#181818;stroke-width:0.5;" x1="1834.5" x2="1966.5" y1="1129" y2="1129"/><line style="stroke:#181818;stroke-width:0.5;" x1="1834.5" x2="1966.5" y1="1137" y2="1137"/></g><!--MD5=[2b95a1d6f5778f78c54890c9bd1e1bdf]
class split_request--><g id="elem_split_request"><rect fill="#F1F1F1" height="48" id="split_request" rx="3.5" ry="3.5" style="stroke:#181818;stroke-width:0.5;" width="126" x="511.5" y="1097"/><ellipse cx="526.5" cy="1113" fill="#ADD1B2" rx="11" ry="11" style="stroke:#181818;stroke-width:1.0;"/><path d="M528.8438,1108.6719 C527.9063,1108.2344 527.3125,1108.0938 526.4375,1108.0938 C523.8125,1108.0938 521.8125,1110.1719 521.8125,1112.8906 L521.8125,1114.0156 C521.8125,1116.5938 523.9219,1118.4844 526.8125,1118.4844 C528.0313,1118.4844 529.1875,1118.1875 529.9375,1117.6406 C530.5156,1117.2344 530.8438,1116.7813 530.8438,1116.3906 C530.8438,1115.9375 530.4531,1115.5469 529.9844,1115.5469 C529.7656,1115.5469 529.5625,1115.625 529.375,1115.8125 C528.9219,1116.2969 528.9219,1116.2969 528.7344,1116.3906 C528.3125,1116.6563 527.625,1116.7813 526.8594,1116.7813 C524.8125,1116.7813 523.5156,1115.6875 523.5156,1113.9844 L523.5156,1112.8906 C523.5156,1111.1094 524.7656,1109.7969 526.5,1109.7969 C527.0781,1109.7969 527.6875,1109.9531 528.1563,1110.2031 C528.6406,1110.4844 528.8125,1110.7031 528.9063,1111.1094 C528.9688,1111.5156 529,1111.6406 529.1406,1111.7656 C529.2813,1111.9063 529.5156,1112.0156 529.7344,1112.0156 C530,1112.0156 530.2656,1111.875 530.4375,1111.6563 C530.5469,1111.5 530.5781,1111.3125 530.5781,1110.8906 L530.5781,1109.4688 C530.5781,1109.0313 530.5625,1108.9063 530.4688,1108.75 C530.3125,1108.4844 530.0313,1108.3438 529.7344,1108.3438 C529.4375,1108.3438 529.2344,1108.4375 529.0156,1108.75 L528.8438,1108.6719 Z " fill="#000000"/><text fill="#000000" font-family="sans-serif" font-size="14" lengthAdjust="spacing" textLength="94" x="540.5" y="1117.8467">split_request</text><line style="stroke:#181818;stroke-width:0.5;" x1="512.5" x2="636.5" y1="1129" y2="1129"/><line style="stroke:#181818;stroke-width:0.5;" x1="512.5" x2="636.5" y1="1137" y2="1137"/></g><!--MD5=[97117c211e82d0ee9c812497fb808d7a]
class double_down_request--><g id="elem_double_down_request"><rect fill="#F1F1F1" height="48" id="double_down_request" rx="3.5" ry="3.5" style="stroke:#181818;stroke-width:0.5;" width="188" x="672.5" y="1097"/><ellipse cx="687.5" cy="1113" fill="#ADD1B2" rx="11" ry="11" style="stroke:#181818;stroke-width:1.0;"/><path d="M689.8438,1108.6719 C688.9063,1108.2344 688.3125,1108.0938 687.4375,1108.0938 C684.8125,1108.0938 682.8125,1110.1719 682.8125,1112.8906 L682.8125,1114.0156 C682.8125,1116.5938 684.9219,1118.4844 687.8125,1118.4844 C689.0313,1118.4844 690.1875,1118.1875 690.9375,1117.6406 C691.5156,1117.2344 691.8438,1116.7813 691.8438,1116.3906 C691.8438,1115.9375 691.4531,1115.5469 690.9844,1115.5469 C690.7656,1115.5469 690.5625,1115.625 690.375,1115.8125 C689.9219,1116.2969 689.9219,1116.2969 689.7344,1116.3906 C689.3125,1116.6563 688.625,1116.7813 687.8594,1116.7813 C685.8125,1116.7813 684.5156,1115.6875 684.5156,1113.9844 L684.5156,1112.8906 C684.5156,1111.1094 685.7656,1109.7969 687.5,1109.7969 C688.0781,1109.7969 688.6875,1109.9531 689.1563,1110.2031 C689.6406,1110.4844 689.8125,1110.7031 689.9063,1111.1094 C689.9688,1111.5156 690,1111.6406 690.1406,1111.7656 C690.2813,1111.9063 690.5156,1112.0156 690.7344,1112.0156 C691,1112.0156 691.2656,1111.875 691.4375,1111.6563 C691.5469,1111.5 691.5781,1111.3125 691.5781,1110.8906 L691.5781,1109.4688 C691.5781,1109.0313 691.5625,1108.9063 691.4688,1108.75 C691.3125,1108.4844 691.0313,1108.3438 690.7344,1108.3438 C690.4375,1108.3438 690.2344,1108.4375 690.0156,1108.75 L689.8438,1108.6719 Z " fill="#000000"/><text fill="#000000" font-family="sans-serif" font-size="14" lengthAdjust="spacing" textLength="156" x="701.5" y="1117.8467">double_down_request</text><line style="stroke:#181818;stroke-width:0.5;" x1="673.5" x2="859.5" y1="1129" y2="1129"/><line style="stroke:#181818;stroke-width:0.5;" x1="673.5" x2="859.5" y1="1137" y2="1137"/></g><!--MD5=[567f0ba92b983d0b636a6afa0e188e64]
class insure_request--><g id="elem_insure_request"><rect fill="#F1F1F1" height="48" id="insure_request" rx="3.5" ry="3.5" style="stroke:#181818;stroke-width:0.5;" width="137" x="896" y="1097"/><ellipse cx="911" cy="1113" fill="#ADD1B2" rx="11" ry="11" style="stroke:#181818;stroke-width:1.0;"/><path d="M913.3438,1108.6719 C912.4063,1108.2344 911.8125,1108.0938 910.9375,1108.0938 C908.3125,1108.0938 906.3125,1110.1719 906.3125,1112.8906 L906.3125,1114.0156 C906.3125,1116.5938 908.4219,1118.4844 911.3125,1118.4844 C912.5313,1118.4844 913.6875,1118.1875 914.4375,1117.6406 C915.0156,1117.2344 915.3438,1116.7813 915.3438,1116.3906 C915.3438,1115.9375 914.9531,1115.5469 914.4844,1115.5469 C914.2656,1115.5469 914.0625,1115.625 913.875,1115.8125 C913.4219,1116.2969 913.4219,1116.2969 913.2344,1116.3906 C912.8125,1116.6563 912.125,1116.7813 911.3594,1116.7813 C909.3125,1116.7813 908.0156,1115.6875 908.0156,1113.9844 L908.0156,1112.8906 C908.0156,1111.1094 909.2656,1109.7969 911,1109.7969 C911.5781,1109.7969 912.1875,1109.9531 912.6563,1110.2031 C913.1406,1110.4844 913.3125,1110.7031 913.4063,1111.1094 C913.4688,1111.5156 913.5,1111.6406 913.6406,1111.7656 C913.7813,1111.9063 914.0156,1112.0156 914.2344,1112.0156 C914.5,1112.0156 914.7656,1111.875 914.9375,1111.6563 C915.0469,1111.5 915.0781,1111.3125 915.0781,1110.8906 L915.0781,1109.4688 C915.0781,1109.0313 915.0625,1108.9063 914.9688,1108.75 C914.8125,1108.4844 914.5313,1108.3438 914.2344,1108.3438 C913.9375,1108.3438 913.7344,1108.4375 913.5156,1108.75 L913.3438,1108.6719 Z " fill="#000000"/><text fill="#000000" font-family="sans-serif" font-size="14" lengthAdjust="spacing" textLength="105" x="925" y="1117.8467">insure_request</text><line style="stroke:#181818;stroke-width:0.5;" x1="897" x2="1032" y1="1129" y2="1129"/><line style="stroke:#181818;stroke-width:0.5;" x1="897" x2="1032" y1="1137" y2="1137"/></g><!--MD5=[4afc4b65ad9e26196afa89ceb4e8159f]
class answer_rqst_response--><g id="elem_answer_rqst_response"><rect fill="#F1F1F1" height="48" id="answer_rqst_response" rx="3.5" ry="3.5" style="stroke:#181818;stroke-width:0.5;" width="191" x="7" y="1097"/><ellipse cx="22" cy="1113" fill="#ADD1B2" rx="11" ry="11" style="stroke:#181818;stroke-width:1.0;"/><path d="M24.3438,1108.6719 C23.4063,1108.2344 22.8125,1108.0938 21.9375,1108.0938 C19.3125,1108.0938 17.3125,1110.1719 17.3125,1112.8906 L17.3125,1114.0156 C17.3125,1116.5938 19.4219,1118.4844 22.3125,1118.4844 C23.5313,1118.4844 24.6875,1118.1875 25.4375,1117.6406 C26.0156,1117.2344 26.3438,1116.7813 26.3438,1116.3906 C26.3438,1115.9375 25.9531,1115.5469 25.4844,1115.5469 C25.2656,1115.5469 25.0625,1115.625 24.875,1115.8125 C24.4219,1116.2969 24.4219,1116.2969 24.2344,1116.3906 C23.8125,1116.6563 23.125,1116.7813 22.3594,1116.7813 C20.3125,1116.7813 19.0156,1115.6875 19.0156,1113.9844 L19.0156,1112.8906 C19.0156,1111.1094 20.2656,1109.7969 22,1109.7969 C22.5781,1109.7969 23.1875,1109.9531 23.6563,1110.2031 C24.1406,1110.4844 24.3125,1110.7031 24.4063,1111.1094 C24.4688,1111.5156 24.5,1111.6406 24.6406,1111.7656 C24.7813,1111.9063 25.0156,1112.0156 25.2344,1112.0156 C25.5,1112.0156 25.7656,1111.875 25.9375,1111.6563 C26.0469,1111.5 26.0781,1111.3125 26.0781,1110.8906 L26.0781,1109.4688 C26.0781,1109.0313 26.0625,1108.9063 25.9688,1108.75 C25.8125,1108.4844 25.5313,1108.3438 25.2344,1108.3438 C24.9375,1108.3438 24.7344,1108.4375 24.5156,1108.75 L24.3438,1108.6719 Z " fill="#000000"/><text fill="#000000" font-family="sans-serif" font-size="14" lengthAdjust="spacing" textLength="159" x="36" y="1117.8467">answer_rqst_response</text><line style="stroke:#181818;stroke-width:0.5;" x1="8" x2="197" y1="1129" y2="1129"/><line style="stroke:#181818;stroke-width:0.5;" x1="8" x2="197" y1="1137" y2="1137"/></g><!--MD5=[3f13f7924d6aec8f58f5ca6baac3018e]
class change_gemestate_response--><g id="elem_change_gemestate_response"><rect fill="#F1F1F1" height="48" id="change_gemestate_response" rx="3.5" ry="3.5" style="stroke:#181818;stroke-width:0.5;" width="243" x="233" y="1097"/><ellipse cx="248" cy="1113" fill="#ADD1B2" rx="11" ry="11" style="stroke:#181818;stroke-width:1.0;"/><path d="M250.3438,1108.6719 C249.4063,1108.2344 248.8125,1108.0938 247.9375,1108.0938 C245.3125,1108.0938 243.3125,1110.1719 243.3125,1112.8906 L243.3125,1114.0156 C243.3125,1116.5938 245.4219,1118.4844 248.3125,1118.4844 C249.5313,1118.4844 250.6875,1118.1875 251.4375,1117.6406 C252.0156,1117.2344 252.3438,1116.7813 252.3438,1116.3906 C252.3438,1115.9375 251.9531,1115.5469 251.4844,1115.5469 C251.2656,1115.5469 251.0625,1115.625 250.875,1115.8125 C250.4219,1116.2969 250.4219,1116.2969 250.2344,1116.3906 C249.8125,1116.6563 249.125,1116.7813 248.3594,1116.7813 C246.3125,1116.7813 245.0156,1115.6875 245.0156,1113.9844 L245.0156,1112.8906 C245.0156,1111.1094 246.2656,1109.7969 248,1109.7969 C248.5781,1109.7969 249.1875,1109.9531 249.6563,1110.2031 C250.1406,1110.4844 250.3125,1110.7031 250.4063,1111.1094 C250.4688,1111.5156 250.5,1111.6406 250.6406,1111.7656 C250.7813,1111.9063 251.0156,1112.0156 251.2344,1112.0156 C251.5,1112.0156 251.7656,1111.875 251.9375,1111.6563 C252.0469,1111.5 252.0781,1111.3125 252.0781,1110.8906 L252.0781,1109.4688 C252.0781,1109.0313 252.0625,1108.9063 251.9688,1108.75 C251.8125,1108.4844 251.5313,1108.3438 251.2344,1108.3438 C250.9375,1108.3438 250.7344,1108.4375 250.5156,1108.75 L250.3438,1108.6719 Z " fill="#000000"/><text fill="#000000" font-family="sans-serif" font-size="14" lengthAdjust="spacing" textLength="211" x="262" y="1117.8467">change_gemestate_response</text><line style="stroke:#181818;stroke-width:0.5;" x1="234" x2="475" y1="1129" y2="1129"/><line style="stroke:#181818;stroke-width:0.5;" x1="234" x2="475" y1="1137" y2="1137"/></g><!--MD5=[7b7f13d36f3b79c727673592c109c23e]
class BlackJack--><g id="elem_BlackJack"><rect codeLine="6" fill="#F1F1F1" height="64.2969" id="BlackJack" rx="3.5" ry="3.5" style="stroke:#181818;stroke-width:0.5;" width="105" x="991" y="88.5"/><ellipse cx="1008.25" cy="104.5" fill="#ADD1B2" rx="11" ry="11" style="stroke:#181818;stroke-width:1.0;"/><path d="M1010.5938,100.1719 C1009.6563,99.7344 1009.0625,99.5938 1008.1875,99.5938 C1005.5625,99.5938 1003.5625,101.6719 1003.5625,104.3906 L1003.5625,105.5156 C1003.5625,108.0938 1005.6719,109.9844 1008.5625,109.9844 C1009.7813,109.9844 1010.9375,109.6875 1011.6875,109.1406 C1012.2656,108.7344 1012.5938,108.2813 1012.5938,107.8906 C1012.5938,107.4375 1012.2031,107.0469 1011.7344,107.0469 C1011.5156,107.0469 1011.3125,107.125 1011.125,107.3125 C1010.6719,107.7969 1010.6719,107.7969 1010.4844,107.8906 C1010.0625,108.1563 1009.375,108.2813 1008.6094,108.2813 C1006.5625,108.2813 1005.2656,107.1875 1005.2656,105.4844 L1005.2656,104.3906 C1005.2656,102.6094 1006.5156,101.2969 1008.25,101.2969 C1008.8281,101.2969 1009.4375,101.4531 1009.9063,101.7031 C1010.3906,101.9844 1010.5625,102.2031 1010.6563,102.6094 C1010.7188,103.0156 1010.75,103.1406 1010.8906,103.2656 C1011.0313,103.4063 1011.2656,103.5156 1011.4844,103.5156 C1011.75,103.5156 1012.0156,103.375 1012.1875,103.1563 C1012.2969,103 1012.3281,102.8125 1012.3281,102.3906 L1012.3281,100.9688 C1012.3281,100.5313 1012.3125,100.4063 1012.2188,100.25 C1012.0625,99.9844 1011.7813,99.8438 1011.4844,99.8438 C1011.1875,99.8438 1010.9844,99.9375 1010.7656,100.25 L1010.5938,100.1719 Z " fill="#000000"/><text fill="#000000" font-family="sans-serif" font-size="14" lengthAdjust="spacing" textLength="68" x="1022.75" y="109.3467">BlackJack</text><line style="stroke:#181818;stroke-width:0.5;" x1="992" x2="1095" y1="120.5" y2="120.5"/><line style="stroke:#181818;stroke-width:1.0;" x1="992" x2="1095" y1="128.5" y2="128.5"/><text fill="#000000" font-family="sans-serif" font-size="14" lengthAdjust="spacing" textLength="93" x="997" y="145.4951">OnInit(): void</text></g><!--MD5=[9eb6544e6aeb41a739650c208e9e5046]
class GameControl--><g id="elem_GameControl"><rect codeLine="11" fill="#F1F1F1" height="259.8594" id="GameControl" rx="3.5" ry="3.5" style="stroke:#181818;stroke-width:0.5;" width="238" x="1237.5" y="774"/><ellipse cx="1304.25" cy="790" fill="#ADD1B2" rx="11" ry="11" style="stroke:#181818;stroke-width:1.0;"/><path d="M1306.5938,785.6719 C1305.6563,785.2344 1305.0625,785.0938 1304.1875,785.0938 C1301.5625,785.0938 1299.5625,787.1719 1299.5625,789.8906 L1299.5625,791.0156 C1299.5625,793.5938 1301.6719,795.4844 1304.5625,795.4844 C1305.7813,795.4844 1306.9375,795.1875 1307.6875,794.6406 C1308.2656,794.2344 1308.5938,793.7813 1308.5938,793.3906 C1308.5938,792.9375 1308.2031,792.5469 1307.7344,792.5469 C1307.5156,792.5469 1307.3125,792.625 1307.125,792.8125 C1306.6719,793.2969 1306.6719,793.2969 1306.4844,793.3906 C1306.0625,793.6563 1305.375,793.7813 1304.6094,793.7813 C1302.5625,793.7813 1301.2656,792.6875 1301.2656,790.9844 L1301.2656,789.8906 C1301.2656,788.1094 1302.5156,786.7969 1304.25,786.7969 C1304.8281,786.7969 1305.4375,786.9531 1305.9063,787.2031 C1306.3906,787.4844 1306.5625,787.7031 1306.6563,788.1094 C1306.7188,788.5156 1306.75,788.6406 1306.8906,788.7656 C1307.0313,788.9063 1307.2656,789.0156 1307.4844,789.0156 C1307.75,789.0156 1308.0156,788.875 1308.1875,788.6563 C1308.2969,788.5 1308.3281,788.3125 1308.3281,787.8906 L1308.3281,786.4688 C1308.3281,786.0313 1308.3125,785.9063 1308.2188,785.75 C1308.0625,785.4844 1307.7813,785.3438 1307.4844,785.3438 C1307.1875,785.3438 1306.9844,785.4375 1306.7656,785.75 L1306.5938,785.6719 Z " fill="#000000"/><text fill="#000000" font-family="sans-serif" font-size="14" lengthAdjust="spacing" textLength="96" x="1324.75" y="794.8467">GameControl</text><line style="stroke:#181818;stroke-width:0.5;" x1="1238.5" x2="1474.5" y1="806" y2="806"/><text fill="#000000" font-family="sans-serif" font-size="14" lengthAdjust="spacing" textLength="71" x="1243.5" y="822.9951">my_id: int</text><text fill="#000000" font-family="sans-serif" font-size="14" lengthAdjust="spacing" textLength="226" x="1243.5" y="839.292">currentGameState: GameState</text><line style="stroke:#181818;stroke-width:1.0;" x1="1238.5" x2="1474.5" y1="846.5938" y2="846.5938"/><text fill="#000000" font-family="sans-serif" font-size="14" lengthAdjust="spacing" textLength="73" x="1243.5" y="863.5889">init(): void</text><text fill="#000000" font-family="sans-serif" font-size="14" lengthAdjust="spacing" textLength="173" x="1243.5" y="879.8857">connectToServer(): void</text><text fill="#000000" font-family="sans-serif" font-size="14" lengthAdjust="spacing" textLength="182" x="1243.5" y="896.1826">updateGameState(): void</text><text fill="#000000" font-family="sans-serif" font-size="14" lengthAdjust="spacing" textLength="126" x="1243.5" y="912.4795">startGame(): void</text><text fill="#000000" font-family="sans-serif" font-size="14" lengthAdjust="spacing" textLength="69" x="1243.5" y="928.7764">hit(): void</text><text fill="#000000" font-family="sans-serif" font-size="14" lengthAdjust="spacing" textLength="89" x="1243.5" y="945.0732">stand(): void</text><text fill="#000000" font-family="sans-serif" font-size="14" lengthAdjust="spacing" textLength="81" x="1243.5" y="961.3701">split(): void</text><text fill="#000000" font-family="sans-serif" font-size="14" lengthAdjust="spacing" textLength="143" x="1243.5" y="977.667">double_down(): void</text><text fill="#000000" font-family="sans-serif" font-size="14" lengthAdjust="spacing" textLength="92" x="1243.5" y="993.9639">insure(): void</text><text fill="#000000" font-family="sans-serif" font-size="14" lengthAdjust="spacing" textLength="221" x="1243.5" y="1010.2607">showNewRoundMessage(): void</text><text fill="#000000" font-family="sans-serif" font-size="14" lengthAdjust="spacing" textLength="222" x="1243.5" y="1026.5576">showGameOverMessage(): void</text></g><!--MD5=[d6f61276bf9879093444a821e862d0ae]
class GUI_Window--><g id="elem_GUI_Window"><rect codeLine="27" fill="#F1F1F1" height="80.5938" id="GUI_Window" rx="3.5" ry="3.5" style="stroke:#181818;stroke-width:0.5;" width="171" x="1100" y="352"/><ellipse cx="1138.4" cy="368" fill="#ADD1B2" rx="11" ry="11" style="stroke:#181818;stroke-width:1.0;"/><path d="M1140.7438,363.6719 C1139.8063,363.2344 1139.2125,363.0938 1138.3375,363.0938 C1135.7125,363.0938 1133.7125,365.1719 1133.7125,367.8906 L1133.7125,369.0156 C1133.7125,371.5938 1135.8219,373.4844 1138.7125,373.4844 C1139.9313,373.4844 1141.0875,373.1875 1141.8375,372.6406 C1142.4156,372.2344 1142.7438,371.7813 1142.7438,371.3906 C1142.7438,370.9375 1142.3531,370.5469 1141.8844,370.5469 C1141.6656,370.5469 1141.4625,370.625 1141.275,370.8125 C1140.8219,371.2969 1140.8219,371.2969 1140.6344,371.3906 C1140.2125,371.6563 1139.525,371.7813 1138.7594,371.7813 C1136.7125,371.7813 1135.4156,370.6875 1135.4156,368.9844 L1135.4156,367.8906 C1135.4156,366.1094 1136.6656,364.7969 1138.4,364.7969 C1138.9781,364.7969 1139.5875,364.9531 1140.0563,365.2031 C1140.5406,365.4844 1140.7125,365.7031 1140.8063,366.1094 C1140.8688,366.5156 1140.9,366.6406 1141.0406,366.7656 C1141.1813,366.9063 1141.4156,367.0156 1141.6344,367.0156 C1141.9,367.0156 1142.1656,366.875 1142.3375,366.6563 C1142.4469,366.5 1142.4781,366.3125 1142.4781,365.8906 L1142.4781,364.4688 C1142.4781,364.0313 1142.4625,363.9063 1142.3688,363.75 C1142.2125,363.4844 1141.9313,363.3438 1141.6344,363.3438 C1141.3375,363.3438 1141.1344,363.4375 1140.9156,363.75 L1140.7438,363.6719 Z " fill="#000000"/><text fill="#000000" font-family="sans-serif" font-size="14" lengthAdjust="spacing" textLength="87" x="1157.6" y="372.8467">GUI_Window</text><line style="stroke:#181818;stroke-width:0.5;" x1="1101" x2="1270" y1="384" y2="384"/><text fill="#000000" font-family="sans-serif" font-size="14" lengthAdjust="spacing" textLength="159" x="1106" y="400.9951">currentPanel: wxPanel</text><line style="stroke:#181818;stroke-width:1.0;" x1="1101" x2="1270" y1="408.2969" y2="408.2969"/><text fill="#000000" font-family="sans-serif" font-size="14" lengthAdjust="spacing" textLength="124" x="1106" y="425.292">showPanel(): void</text></g><!--MD5=[f6a0528dd9907693989795467ebd9aa6]
class ConnectionPanel--><g id="elem_ConnectionPanel"><rect codeLine="35" fill="#F1F1F1" height="145.7813" id="ConnectionPanel" rx="3.5" ry="3.5" style="stroke:#181818;stroke-width:0.5;" width="202" x="1255.5" y="551"/><ellipse cx="1292.1" cy="567" fill="#ADD1B2" rx="11" ry="11" style="stroke:#181818;stroke-width:1.0;"/><path d="M1294.4438,562.6719 C1293.5063,562.2344 1292.9125,562.0938 1292.0375,562.0938 C1289.4125,562.0938 1287.4125,564.1719 1287.4125,566.8906 L1287.4125,568.0156 C1287.4125,570.5938 1289.5219,572.4844 1292.4125,572.4844 C1293.6313,572.4844 1294.7875,572.1875 1295.5375,571.6406 C1296.1156,571.2344 1296.4438,570.7813 1296.4438,570.3906 C1296.4438,569.9375 1296.0531,569.5469 1295.5844,569.5469 C1295.3656,569.5469 1295.1625,569.625 1294.975,569.8125 C1294.5219,570.2969 1294.5219,570.2969 1294.3344,570.3906 C1293.9125,570.6563 1293.225,570.7813 1292.4594,570.7813 C1290.4125,570.7813 1289.1156,569.6875 1289.1156,567.9844 L1289.1156,566.8906 C1289.1156,565.1094 1290.3656,563.7969 1292.1,563.7969 C1292.6781,563.7969 1293.2875,563.9531 1293.7563,564.2031 C1294.2406,564.4844 1294.4125,564.7031 1294.5063,565.1094 C1294.5688,565.5156 1294.6,565.6406 1294.7406,565.7656 C1294.8813,565.9063 1295.1156,566.0156 1295.3344,566.0156 C1295.6,566.0156 1295.8656,565.875 1296.0375,565.6563 C1296.1469,565.5 1296.1781,565.3125 1296.1781,564.8906 L1296.1781,563.4688 C1296.1781,563.0313 1296.1625,562.9063 1296.0688,562.75 C1295.9125,562.4844 1295.6313,562.3438 1295.3344,562.3438 C1295.0375,562.3438 1294.8344,562.4375 1294.6156,562.75 L1294.4438,562.6719 Z " fill="#000000"/><text fill="#000000" font-family="sans-serif" font-size="14" lengthAdjust="spacing" textLength="122" x="1310.9" y="571.8467">ConnectionPanel</text><line style="stroke:#181818;stroke-width:0.5;" x1="1256.5" x2="1456.5" y1="583" y2="583"/><text fill="#000000" font-family="sans-serif" font-size="14" lengthAdjust="spacing" textLength="153" x="1261.5" y="599.9951">serverAddress: string</text><text fill="#000000" font-family="sans-serif" font-size="14" lengthAdjust="spacing" textLength="127" x="1261.5" y="616.292">serverPort: string</text><text fill="#000000" font-family="sans-serif" font-size="14" lengthAdjust="spacing" textLength="137" x="1261.5" y="632.5889">playerName: string</text><line style="stroke:#181818;stroke-width:1.0;" x1="1256.5" x2="1456.5" y1="639.8906" y2="639.8906"/><text fill="#000000" font-family="sans-serif" font-size="14" lengthAdjust="spacing" textLength="190" x="1261.5" y="656.8857">getServerAddress(): string</text><text fill="#000000" font-family="sans-serif" font-size="14" lengthAdjust="spacing" textLength="164" x="1261.5" y="673.1826">getServerPort(): string</text><text fill="#000000" font-family="sans-serif" font-size="14" lengthAdjust="spacing" textLength="130" x="1261.5" y="689.4795">getPlayer(): string</text></g><!--MD5=[fe9cacd9df78165d25091142b754d1cc]
class BetPanel--><g id="elem_BetPanel"><rect codeLine="45" fill="#F1F1F1" height="113.1875" id="BetPanel" rx="3.5" ry="3.5" style="stroke:#181818;stroke-width:0.5;" width="167" x="1983" y="567.5"/><ellipse cx="2029.75" cy="583.5" fill="#ADD1B2" rx="11" ry="11" style="stroke:#181818;stroke-width:1.0;"/><path d="M2032.0938,579.1719 C2031.1563,578.7344 2030.5625,578.5938 2029.6875,578.5938 C2027.0625,578.5938 2025.0625,580.6719 2025.0625,583.3906 L2025.0625,584.5156 C2025.0625,587.0938 2027.1719,588.9844 2030.0625,588.9844 C2031.2813,588.9844 2032.4375,588.6875 2033.1875,588.1406 C2033.7656,587.7344 2034.0938,587.2813 2034.0938,586.8906 C2034.0938,586.4375 2033.7031,586.0469 2033.2344,586.0469 C2033.0156,586.0469 2032.8125,586.125 2032.625,586.3125 C2032.1719,586.7969 2032.1719,586.7969 2031.9844,586.8906 C2031.5625,587.1563 2030.875,587.2813 2030.1094,587.2813 C2028.0625,587.2813 2026.7656,586.1875 2026.7656,584.4844 L2026.7656,583.3906 C2026.7656,581.6094 2028.0156,580.2969 2029.75,580.2969 C2030.3281,580.2969 2030.9375,580.4531 2031.4063,580.7031 C2031.8906,580.9844 2032.0625,581.2031 2032.1563,581.6094 C2032.2188,582.0156 2032.25,582.1406 2032.3906,582.2656 C2032.5313,582.4063 2032.7656,582.5156 2032.9844,582.5156 C2033.25,582.5156 2033.5156,582.375 2033.6875,582.1563 C2033.7969,582 2033.8281,581.8125 2033.8281,581.3906 L2033.8281,579.9688 C2033.8281,579.5313 2033.8125,579.4063 2033.7188,579.25 C2033.5625,578.9844 2033.2813,578.8438 2032.9844,578.8438 C2032.6875,578.8438 2032.4844,578.9375 2032.2656,579.25 L2032.0938,579.1719 Z " fill="#000000"/><text fill="#000000" font-family="sans-serif" font-size="14" lengthAdjust="spacing" textLength="65" x="2050.25" y="588.3467">BetPanel</text><line style="stroke:#181818;stroke-width:0.5;" x1="1984" x2="2149" y1="599.5" y2="599.5"/><text fill="#000000" font-family="sans-serif" font-size="14" lengthAdjust="spacing" textLength="85" x="1989" y="616.4951">betSize: int</text><text fill="#000000" font-family="sans-serif" font-size="14" lengthAdjust="spacing" textLength="121" x="1989" y="632.792">playerMoney: int</text><line style="stroke:#181818;stroke-width:1.0;" x1="1984" x2="2149" y1="640.0938" y2="640.0938"/><text fill="#000000" font-family="sans-serif" font-size="14" lengthAdjust="spacing" textLength="120" x="1989" y="657.0889">getBetSize(): int</text><text fill="#000000" font-family="sans-serif" font-size="14" lengthAdjust="spacing" textLength="155" x="1989" y="673.3857">getPlayerMoney(): int</text></g><!--MD5=[9ab099a923a0735eb9326eff6fc389c3]
class MainGamePanel--><g id="elem_MainGamePanel"><rect codeLine="53" fill="#F1F1F1" height="129.4844" id="MainGamePanel" rx="3.5" ry="3.5" style="stroke:#181818;stroke-width:0.5;" width="211" x="1493" y="559.5"/><ellipse cx="1537.25" cy="575.5" fill="#ADD1B2" rx="11" ry="11" style="stroke:#181818;stroke-width:1.0;"/><path d="M1539.5938,571.1719 C1538.6563,570.7344 1538.0625,570.5938 1537.1875,570.5938 C1534.5625,570.5938 1532.5625,572.6719 1532.5625,575.3906 L1532.5625,576.5156 C1532.5625,579.0938 1534.6719,580.9844 1537.5625,580.9844 C1538.7813,580.9844 1539.9375,580.6875 1540.6875,580.1406 C1541.2656,579.7344 1541.5938,579.2813 1541.5938,578.8906 C1541.5938,578.4375 1541.2031,578.0469 1540.7344,578.0469 C1540.5156,578.0469 1540.3125,578.125 1540.125,578.3125 C1539.6719,578.7969 1539.6719,578.7969 1539.4844,578.8906 C1539.0625,579.1563 1538.375,579.2813 1537.6094,579.2813 C1535.5625,579.2813 1534.2656,578.1875 1534.2656,576.4844 L1534.2656,575.3906 C1534.2656,573.6094 1535.5156,572.2969 1537.25,572.2969 C1537.8281,572.2969 1538.4375,572.4531 1538.9063,572.7031 C1539.3906,572.9844 1539.5625,573.2031 1539.6563,573.6094 C1539.7188,574.0156 1539.75,574.1406 1539.8906,574.2656 C1540.0313,574.4063 1540.2656,574.5156 1540.4844,574.5156 C1540.75,574.5156 1541.0156,574.375 1541.1875,574.1563 C1541.2969,574 1541.3281,573.8125 1541.3281,573.3906 L1541.3281,571.9688 C1541.3281,571.5313 1541.3125,571.4063 1541.2188,571.25 C1541.0625,570.9844 1540.7813,570.8438 1540.4844,570.8438 C1540.1875,570.8438 1539.9844,570.9375 1539.7656,571.25 L1539.5938,571.1719 Z " fill="#000000"/><text fill="#000000" font-family="sans-serif" font-size="14" lengthAdjust="spacing" textLength="114" x="1557.75" y="580.3467">MainGamePanel</text><line style="stroke:#181818;stroke-width:0.5;" x1="1494" x2="1703" y1="591.5" y2="591.5"/><line style="stroke:#181818;stroke-width:1.0;" x1="1494" x2="1703" y1="599.5" y2="599.5"/><text fill="#000000" font-family="sans-serif" font-size="14" lengthAdjust="spacing" textLength="199" x="1499" y="616.4951">buildGameController(): void</text><text fill="#000000" font-family="sans-serif" font-size="14" lengthAdjust="spacing" textLength="133" x="1499" y="632.792">buildOthers(): void</text><text fill="#000000" font-family="sans-serif" font-size="14" lengthAdjust="spacing" textLength="187" x="1499" y="649.0889">buildRoundCounter(): void</text><text fill="#000000" font-family="sans-serif" font-size="14" lengthAdjust="spacing" textLength="130" x="1499" y="665.3857">buildMyself(): void</text><text fill="#000000" font-family="sans-serif" font-size="14" lengthAdjust="spacing" textLength="4" x="1499" y="681.6826"> </text></g><!--MD5=[1b25306f12812b05dae11feefffdaa2f]
class ClientNetworkManager--><g id="elem_ClientNetworkManager"><rect codeLine="64" fill="#F1F1F1" height="129.4844" id="ClientNetworkManager" rx="3.5" ry="3.5" style="stroke:#181818;stroke-width:0.5;" width="208" x="1739.5" y="559.5"/><ellipse cx="1759.45" cy="575.5" fill="#ADD1B2" rx="11" ry="11" style="stroke:#181818;stroke-width:1.0;"/><path d="M1761.7938,571.1719 C1760.8563,570.7344 1760.2625,570.5938 1759.3875,570.5938 C1756.7625,570.5938 1754.7625,572.6719 1754.7625,575.3906 L1754.7625,576.5156 C1754.7625,579.0938 1756.8719,580.9844 1759.7625,580.9844 C1760.9813,580.9844 1762.1375,580.6875 1762.8875,580.1406 C1763.4656,579.7344 1763.7938,579.2813 1763.7938,578.8906 C1763.7938,578.4375 1763.4031,578.0469 1762.9344,578.0469 C1762.7156,578.0469 1762.5125,578.125 1762.325,578.3125 C1761.8719,578.7969 1761.8719,578.7969 1761.6844,578.8906 C1761.2625,579.1563 1760.575,579.2813 1759.8094,579.2813 C1757.7625,579.2813 1756.4656,578.1875 1756.4656,576.4844 L1756.4656,575.3906 C1756.4656,573.6094 1757.7156,572.2969 1759.45,572.2969 C1760.0281,572.2969 1760.6375,572.4531 1761.1063,572.7031 C1761.5906,572.9844 1761.7625,573.2031 1761.8563,573.6094 C1761.9188,574.0156 1761.95,574.1406 1762.0906,574.2656 C1762.2313,574.4063 1762.4656,574.5156 1762.6844,574.5156 C1762.95,574.5156 1763.2156,574.375 1763.3875,574.1563 C1763.4969,574 1763.5281,573.8125 1763.5281,573.3906 L1763.5281,571.9688 C1763.5281,571.5313 1763.5125,571.4063 1763.4188,571.25 C1763.2625,570.9844 1762.9813,570.8438 1762.6844,570.8438 C1762.3875,570.8438 1762.1844,570.9375 1761.9656,571.25 L1761.7938,571.1719 Z " fill="#000000"/><text fill="#000000" font-family="sans-serif" font-size="14" lengthAdjust="spacing" textLength="165" x="1774.55" y="580.3467">ClientNetworkManager</text><line style="stroke:#181818;stroke-width:0.5;" x1="1740.5" x2="1946.5" y1="591.5" y2="591.5"/><text fill="#000000" font-family="sans-serif" font-size="14" lengthAdjust="spacing" textLength="136" x="1745.5" y="608.4951">is_connected: bool</text><text fill="#000000" font-family="sans-serif" font-size="14" lengthAdjust="spacing" textLength="196" x="1745.5" y="624.792">connection: tcp_connector</text><line style="stroke:#181818;stroke-width:1.0;" x1="1740.5" x2="1946.5" y1="632.0938" y2="632.0938"/><text fill="#000000" font-family="sans-serif" font-size="14" lengthAdjust="spacing" textLength="63" x="1745.5" y="649.0889">init(): int</text><text fill="#000000" font-family="sans-serif" font-size="14" lengthAdjust="spacing" textLength="142" x="1745.5" y="665.3857">sendRequest(): void</text><text fill="#000000" font-family="sans-serif" font-size="14" lengthAdjust="spacing" textLength="159" x="1745.5" y="681.6826">parseResponse(): void</text></g><!--MD5=[d238399a59a6d37a1120621ab6d2e95a]
class ResponseListenerThread--><g id="elem_ResponseListenerThread"><rect codeLine="73" fill="#F1F1F1" height="113.1875" id="ResponseListenerThread" rx="3.5" ry="3.5" style="stroke:#181818;stroke-width:0.5;" width="211" x="1738" y="847.5"/><ellipse cx="1753" cy="863.5" fill="#ADD1B2" rx="11" ry="11" style="stroke:#181818;stroke-width:1.0;"/><path d="M1755.3438,859.1719 C1754.4063,858.7344 1753.8125,858.5938 1752.9375,858.5938 C1750.3125,858.5938 1748.3125,860.6719 1748.3125,863.3906 L1748.3125,864.5156 C1748.3125,867.0938 1750.4219,868.9844 1753.3125,868.9844 C1754.5313,868.9844 1755.6875,868.6875 1756.4375,868.1406 C1757.0156,867.7344 1757.3438,867.2813 1757.3438,866.8906 C1757.3438,866.4375 1756.9531,866.0469 1756.4844,866.0469 C1756.2656,866.0469 1756.0625,866.125 1755.875,866.3125 C1755.4219,866.7969 1755.4219,866.7969 1755.2344,866.8906 C1754.8125,867.1563 1754.125,867.2813 1753.3594,867.2813 C1751.3125,867.2813 1750.0156,866.1875 1750.0156,864.4844 L1750.0156,863.3906 C1750.0156,861.6094 1751.2656,860.2969 1753,860.2969 C1753.5781,860.2969 1754.1875,860.4531 1754.6563,860.7031 C1755.1406,860.9844 1755.3125,861.2031 1755.4063,861.6094 C1755.4688,862.0156 1755.5,862.1406 1755.6406,862.2656 C1755.7813,862.4063 1756.0156,862.5156 1756.2344,862.5156 C1756.5,862.5156 1756.7656,862.375 1756.9375,862.1563 C1757.0469,862 1757.0781,861.8125 1757.0781,861.3906 L1757.0781,859.9688 C1757.0781,859.5313 1757.0625,859.4063 1756.9688,859.25 C1756.8125,858.9844 1756.5313,858.8438 1756.2344,858.8438 C1755.9375,858.8438 1755.7344,858.9375 1755.5156,859.25 L1755.3438,859.1719 Z " fill="#000000"/><text fill="#000000" font-family="sans-serif" font-size="14" lengthAdjust="spacing" textLength="179" x="1767" y="868.3467">ResponseListenerThread</text><line style="stroke:#181818;stroke-width:0.5;" x1="1739" x2="1948" y1="879.5" y2="879.5"/><text fill="#000000" font-family="sans-serif" font-size="14" lengthAdjust="spacing" textLength="189" x="1744" y="896.4951">connector: tcp_connector</text><text fill="#000000" font-family="sans-serif" font-size="14" lengthAdjust="spacing" textLength="12" x="1744" y="912.792">--</text><text fill="#000000" font-family="sans-serif" font-size="14" lengthAdjust="spacing" textLength="124" x="1744" y="929.0889">outputError: void</text><line style="stroke:#181818;stroke-width:0.5;" x1="1739" x2="1948" y1="936.3906" y2="936.3906"/><text fill="#000000" font-family="sans-serif" font-size="14" lengthAdjust="spacing" textLength="88" x="1744" y="953.3857">entry(): void</text></g><!--MD5=[9b257e8781d420fff5446e2eb49c7c1c]
class server_network_manager--><g id="elem_server_network_manager"><rect codeLine="81" fill="#F1F1F1" height="194.6719" id="server_network_manager" rx="3.5" ry="3.5" style="stroke:#181818;stroke-width:0.5;" width="252" x="399.5" y="295"/><ellipse cx="431.6" cy="311" fill="#ADD1B2" rx="11" ry="11" style="stroke:#181818;stroke-width:1.0;"/><path d="M433.9438,306.6719 C433.0063,306.2344 432.4125,306.0938 431.5375,306.0938 C428.9125,306.0938 426.9125,308.1719 426.9125,310.8906 L426.9125,312.0156 C426.9125,314.5938 429.0219,316.4844 431.9125,316.4844 C433.1313,316.4844 434.2875,316.1875 435.0375,315.6406 C435.6156,315.2344 435.9438,314.7813 435.9438,314.3906 C435.9438,313.9375 435.5531,313.5469 435.0844,313.5469 C434.8656,313.5469 434.6625,313.625 434.475,313.8125 C434.0219,314.2969 434.0219,314.2969 433.8344,314.3906 C433.4125,314.6563 432.725,314.7813 431.9594,314.7813 C429.9125,314.7813 428.6156,313.6875 428.6156,311.9844 L428.6156,310.8906 C428.6156,309.1094 429.8656,307.7969 431.6,307.7969 C432.1781,307.7969 432.7875,307.9531 433.2563,308.2031 C433.7406,308.4844 433.9125,308.7031 434.0063,309.1094 C434.0688,309.5156 434.1,309.6406 434.2406,309.7656 C434.3813,309.9063 434.6156,310.0156 434.8344,310.0156 C435.1,310.0156 435.3656,309.875 435.5375,309.6563 C435.6469,309.5 435.6781,309.3125 435.6781,308.8906 L435.6781,307.4688 C435.6781,307.0313 435.6625,306.9063 435.5688,306.75 C435.4125,306.4844 435.1313,306.3438 434.8344,306.3438 C434.5375,306.3438 434.3344,306.4375 434.1156,306.75 L433.9438,306.6719 Z " fill="#000000"/><text fill="#000000" font-family="sans-serif" font-size="14" lengthAdjust="spacing" textLength="182" x="449.4" y="315.8467">server_network_manager</text><line style="stroke:#181818;stroke-width:0.5;" x1="400.5" x2="650.5" y1="327" y2="327"/><text fill="#000000" font-family="sans-serif" font-size="14" lengthAdjust="spacing" textLength="130" x="405.5" y="343.9951">acc: tcp_acceptor</text><text fill="#000000" font-family="sans-serif" font-size="14" lengthAdjust="spacing" textLength="191" x="405.5" y="360.292">player_id_to_address: map</text><text fill="#000000" font-family="sans-serif" font-size="14" lengthAdjust="spacing" textLength="175" x="405.5" y="376.5889">address_to_socket: map</text><line style="stroke:#181818;stroke-width:1.0;" x1="400.5" x2="650.5" y1="383.8906" y2="383.8906"/><text fill="#000000" font-family="sans-serif" font-size="14" lengthAdjust="spacing" textLength="143" x="405.5" y="400.8857">listener_loop(): void</text><text fill="#000000" font-family="sans-serif" font-size="14" lengthAdjust="spacing" textLength="240" x="405.5" y="417.1826">handle_incoming_message(): void</text><text fill="#000000" font-family="sans-serif" font-size="14" lengthAdjust="spacing" textLength="151" x="405.5" y="433.4795">read_message(): void</text><text fill="#000000" font-family="sans-serif" font-size="14" lengthAdjust="spacing" textLength="153" x="405.5" y="449.7764">send_message(): void</text><text fill="#000000" font-family="sans-serif" font-size="14" lengthAdjust="spacing" textLength="191" x="405.5" y="466.0732">broadcast_message(): void</text><text fill="#000000" font-family="sans-serif" font-size="14" lengthAdjust="spacing" textLength="152" x="405.5" y="482.3701">on_player_left(): void</text></g><!--MD5=[734e62549b123ccb989b3a2c32846bc9]
class player_manager--><g id="elem_player_manager"><rect codeLine="94" fill="#F1F1F1" height="96.8906" id="player_manager" rx="3.5" ry="3.5" style="stroke:#181818;stroke-width:0.5;" width="147" x="695" y="344"/><ellipse cx="710" cy="360" fill="#ADD1B2" rx="11" ry="11" style="stroke:#181818;stroke-width:1.0;"/><path d="M712.3438,355.6719 C711.4063,355.2344 710.8125,355.0938 709.9375,355.0938 C707.3125,355.0938 705.3125,357.1719 705.3125,359.8906 L705.3125,361.0156 C705.3125,363.5938 707.4219,365.4844 710.3125,365.4844 C711.5313,365.4844 712.6875,365.1875 713.4375,364.6406 C714.0156,364.2344 714.3438,363.7813 714.3438,363.3906 C714.3438,362.9375 713.9531,362.5469 713.4844,362.5469 C713.2656,362.5469 713.0625,362.625 712.875,362.8125 C712.4219,363.2969 712.4219,363.2969 712.2344,363.3906 C711.8125,363.6563 711.125,363.7813 710.3594,363.7813 C708.3125,363.7813 707.0156,362.6875 707.0156,360.9844 L707.0156,359.8906 C707.0156,358.1094 708.2656,356.7969 710,356.7969 C710.5781,356.7969 711.1875,356.9531 711.6563,357.2031 C712.1406,357.4844 712.3125,357.7031 712.4063,358.1094 C712.4688,358.5156 712.5,358.6406 712.6406,358.7656 C712.7813,358.9063 713.0156,359.0156 713.2344,359.0156 C713.5,359.0156 713.7656,358.875 713.9375,358.6563 C714.0469,358.5 714.0781,358.3125 714.0781,357.8906 L714.0781,356.4688 C714.0781,356.0313 714.0625,355.9063 713.9688,355.75 C713.8125,355.4844 713.5313,355.3438 713.2344,355.3438 C712.9375,355.3438 712.7344,355.4375 712.5156,355.75 L712.3438,355.6719 Z " fill="#000000"/><text fill="#000000" font-family="sans-serif" font-size="14" lengthAdjust="spacing" textLength="115" x="724" y="364.8467">player_manager</text><line style="stroke:#181818;stroke-width:0.5;" x1="696" x2="841" y1="376" y2="376"/><text fill="#000000" font-family="sans-serif" font-size="14" lengthAdjust="spacing" textLength="125" x="701" y="392.9951">player_map: map</text><line style="stroke:#181818;stroke-width:1.0;" x1="696" x2="841" y1="400.2969" y2="400.2969"/><text fill="#000000" font-family="sans-serif" font-size="14" lengthAdjust="spacing" textLength="128" x="701" y="417.292">get_player(): bool</text><text fill="#000000" font-family="sans-serif" font-size="14" lengthAdjust="spacing" textLength="129" x="701" y="433.5889">add_player(): bool</text></g><!--MD5=[7cd39aee7a82a3def7b2a5a1a63576a7]
class game_manager--><g id="elem_game_manager"><rect codeLine="101" fill="#F1F1F1" height="227.2656" id="game_manager" rx="3.5" ry="3.5" style="stroke:#181818;stroke-width:0.5;" width="198" x="426.5" y="7"/><ellipse cx="466.7" cy="23" fill="#ADD1B2" rx="11" ry="11" style="stroke:#181818;stroke-width:1.0;"/><path d="M469.0438,18.6719 C468.1063,18.2344 467.5125,18.0938 466.6375,18.0938 C464.0125,18.0938 462.0125,20.1719 462.0125,22.8906 L462.0125,24.0156 C462.0125,26.5938 464.1219,28.4844 467.0125,28.4844 C468.2313,28.4844 469.3875,28.1875 470.1375,27.6406 C470.7156,27.2344 471.0438,26.7813 471.0438,26.3906 C471.0438,25.9375 470.6531,25.5469 470.1844,25.5469 C469.9656,25.5469 469.7625,25.625 469.575,25.8125 C469.1219,26.2969 469.1219,26.2969 468.9344,26.3906 C468.5125,26.6563 467.825,26.7813 467.0594,26.7813 C465.0125,26.7813 463.7156,25.6875 463.7156,23.9844 L463.7156,22.8906 C463.7156,21.1094 464.9656,19.7969 466.7,19.7969 C467.2781,19.7969 467.8875,19.9531 468.3563,20.2031 C468.8406,20.4844 469.0125,20.7031 469.1063,21.1094 C469.1688,21.5156 469.2,21.6406 469.3406,21.7656 C469.4813,21.9063 469.7156,22.0156 469.9344,22.0156 C470.2,22.0156 470.4656,21.875 470.6375,21.6563 C470.7469,21.5 470.7781,21.3125 470.7781,20.8906 L470.7781,19.4688 C470.7781,19.0313 470.7625,18.9063 470.6688,18.75 C470.5125,18.4844 470.2313,18.3438 469.9344,18.3438 C469.6375,18.3438 469.4344,18.4375 469.2156,18.75 L469.0438,18.6719 Z " fill="#000000"/><text fill="#000000" font-family="sans-serif" font-size="14" lengthAdjust="spacing" textLength="110" x="486.3" y="27.8467">game_manager</text><line style="stroke:#181818;stroke-width:0.5;" x1="427.5" x2="623.5" y1="39" y2="39"/><text fill="#000000" font-family="sans-serif" font-size="14" lengthAdjust="spacing" textLength="176" x="432.5" y="55.9951">game_state: GameState</text><line style="stroke:#181818;stroke-width:1.0;" x1="427.5" x2="623.5" y1="63.2969" y2="63.2969"/><text fill="#000000" font-family="sans-serif" font-size="14" lengthAdjust="spacing" textLength="122" x="432.5" y="80.292">is_started(): bool</text><text fill="#000000" font-family="sans-serif" font-size="14" lengthAdjust="spacing" textLength="126" x="432.5" y="96.5889">is_finished(): bool</text><text fill="#000000" font-family="sans-serif" font-size="14" lengthAdjust="spacing" textLength="133" x="432.5" y="112.8857">start_game(): bool</text><text fill="#000000" font-family="sans-serif" font-size="14" lengthAdjust="spacing" textLength="129" x="432.5" y="129.1826">add_player(): bool</text><text fill="#000000" font-family="sans-serif" font-size="14" lengthAdjust="spacing" textLength="186" x="432.5" y="145.4795">try_remove_player(): bool</text><text fill="#000000" font-family="sans-serif" font-size="14" lengthAdjust="spacing" textLength="71" x="432.5" y="161.7764">hit(): bool</text><text fill="#000000" font-family="sans-serif" font-size="14" lengthAdjust="spacing" textLength="91" x="432.5" y="178.0732">stand(): bool</text><text fill="#000000" font-family="sans-serif" font-size="14" lengthAdjust="spacing" textLength="83" x="432.5" y="194.3701">split(): bool</text><text fill="#000000" font-family="sans-serif" font-size="14" lengthAdjust="spacing" textLength="145" x="432.5" y="210.667">double_down(): bool</text><text fill="#000000" font-family="sans-serif" font-size="14" lengthAdjust="spacing" textLength="94" x="432.5" y="226.9639">insure(): bool</text></g><!--MD5=[444c12384fa8e4658b09e5ec8a311d8e]
class request_handler--><g id="elem_request_handler"><rect codeLine="116" fill="#F1F1F1" height="64.2969" id="request_handler" rx="3.5" ry="3.5" style="stroke:#181818;stroke-width:0.5;" width="266" x="659.5" y="88.5"/><ellipse cx="730.25" cy="104.5" fill="#ADD1B2" rx="11" ry="11" style="stroke:#181818;stroke-width:1.0;"/><path d="M732.5938,100.1719 C731.6563,99.7344 731.0625,99.5938 730.1875,99.5938 C727.5625,99.5938 725.5625,101.6719 725.5625,104.3906 L725.5625,105.5156 C725.5625,108.0938 727.6719,109.9844 730.5625,109.9844 C731.7813,109.9844 732.9375,109.6875 733.6875,109.1406 C734.2656,108.7344 734.5938,108.2813 734.5938,107.8906 C734.5938,107.4375 734.2031,107.0469 733.7344,107.0469 C733.5156,107.0469 733.3125,107.125 733.125,107.3125 C732.6719,107.7969 732.6719,107.7969 732.4844,107.8906 C732.0625,108.1563 731.375,108.2813 730.6094,108.2813 C728.5625,108.2813 727.2656,107.1875 727.2656,105.4844 L727.2656,104.3906 C727.2656,102.6094 728.5156,101.2969 730.25,101.2969 C730.8281,101.2969 731.4375,101.4531 731.9063,101.7031 C732.3906,101.9844 732.5625,102.2031 732.6563,102.6094 C732.7188,103.0156 732.75,103.1406 732.8906,103.2656 C733.0313,103.4063 733.2656,103.5156 733.4844,103.5156 C733.75,103.5156 734.0156,103.375 734.1875,103.1563 C734.2969,103 734.3281,102.8125 734.3281,102.3906 L734.3281,100.9688 C734.3281,100.5313 734.3125,100.4063 734.2188,100.25 C734.0625,99.9844 733.7813,99.8438 733.4844,99.8438 C733.1875,99.8438 732.9844,99.9375 732.7656,100.25 L732.5938,100.1719 Z " fill="#000000"/><text fill="#000000" font-family="sans-serif" font-size="14" lengthAdjust="spacing" textLength="116" x="750.75" y="109.3467">request_handler</text><line style="stroke:#181818;stroke-width:0.5;" x1="660.5" x2="924.5" y1="120.5" y2="120.5"/><text fill="#000000" font-family="sans-serif" font-size="14" lengthAdjust="spacing" textLength="254" x="665.5" y="137.4951">handle_request: request_response*</text><line style="stroke:#181818;stroke-width:0.5;" x1="660.5" x2="924.5" y1="144.7969" y2="144.7969"/></g><!--MD5=[262a51d1dc717e56e9f8caca7c67f5ef]
class wxPanel--><g id="elem_wxPanel"><rect fill="#F1F1F1" height="48" id="wxPanel" rx="3.5" ry="3.5" style="stroke:#181818;stroke-width:0.5;" width="90" x="1553.5" y="368.5"/><ellipse cx="1568.5" cy="384.5" fill="#ADD1B2" rx="11" ry="11" style="stroke:#181818;stroke-width:1.0;"/><path d="M1570.8438,380.1719 C1569.9063,379.7344 1569.3125,379.5938 1568.4375,379.5938 C1565.8125,379.5938 1563.8125,381.6719 1563.8125,384.3906 L1563.8125,385.5156 C1563.8125,388.0938 1565.9219,389.9844 1568.8125,389.9844 C1570.0313,389.9844 1571.1875,389.6875 1571.9375,389.1406 C1572.5156,388.7344 1572.8438,388.2813 1572.8438,387.8906 C1572.8438,387.4375 1572.4531,387.0469 1571.9844,387.0469 C1571.7656,387.0469 1571.5625,387.125 1571.375,387.3125 C1570.9219,387.7969 1570.9219,387.7969 1570.7344,387.8906 C1570.3125,388.1563 1569.625,388.2813 1568.8594,388.2813 C1566.8125,388.2813 1565.5156,387.1875 1565.5156,385.4844 L1565.5156,384.3906 C1565.5156,382.6094 1566.7656,381.2969 1568.5,381.2969 C1569.0781,381.2969 1569.6875,381.4531 1570.1563,381.7031 C1570.6406,381.9844 1570.8125,382.2031 1570.9063,382.6094 C1570.9688,383.0156 1571,383.1406 1571.1406,383.2656 C1571.2813,383.4063 1571.5156,383.5156 1571.7344,383.5156 C1572,383.5156 1572.2656,383.375 1572.4375,383.1563 C1572.5469,383 1572.5781,382.8125 1572.5781,382.3906 L1572.5781,380.9688 C1572.5781,380.5313 1572.5625,380.4063 1572.4688,380.25 C1572.3125,379.9844 1572.0313,379.8438 1571.7344,379.8438 C1571.4375,379.8438 1571.2344,379.9375 1571.0156,380.25 L1570.8438,380.1719 Z " fill="#000000"/><text fill="#000000" font-family="sans-serif" font-size="14" lengthAdjust="spacing" textLength="58" x="1582.5" y="389.3467">wxPanel</text><line style="stroke:#181818;stroke-width:0.5;" x1="1554.5" x2="1642.5" y1="400.5" y2="400.5"/><line style="stroke:#181818;stroke-width:0.5;" x1="1554.5" x2="1642.5" y1="408.5" y2="408.5"/></g><!--MD5=[c7264ce4f89b23688712d4e7c0ef5c6f]
class wxFrame--><g id="elem_wxFrame"><rect fill="#F1F1F1" height="48" id="wxFrame" rx="3.5" ry="3.5" style="stroke:#181818;stroke-width:0.5;" width="96" x="1137.5" y="96.5"/><ellipse cx="1152.5" cy="112.5" fill="#ADD1B2" rx="11" ry="11" style="stroke:#181818;stroke-width:1.0;"/><path d="M1154.8438,108.1719 C1153.9063,107.7344 1153.3125,107.5938 1152.4375,107.5938 C1149.8125,107.5938 1147.8125,109.6719 1147.8125,112.3906 L1147.8125,113.5156 C1147.8125,116.0938 1149.9219,117.9844 1152.8125,117.9844 C1154.0313,117.9844 1155.1875,117.6875 1155.9375,117.1406 C1156.5156,116.7344 1156.8438,116.2813 1156.8438,115.8906 C1156.8438,115.4375 1156.4531,115.0469 1155.9844,115.0469 C1155.7656,115.0469 1155.5625,115.125 1155.375,115.3125 C1154.9219,115.7969 1154.9219,115.7969 1154.7344,115.8906 C1154.3125,116.1563 1153.625,116.2813 1152.8594,116.2813 C1150.8125,116.2813 1149.5156,115.1875 1149.5156,113.4844 L1149.5156,112.3906 C1149.5156,110.6094 1150.7656,109.2969 1152.5,109.2969 C1153.0781,109.2969 1153.6875,109.4531 1154.1563,109.7031 C1154.6406,109.9844 1154.8125,110.2031 1154.9063,110.6094 C1154.9688,111.0156 1155,111.1406 1155.1406,111.2656 C1155.2813,111.4063 1155.5156,111.5156 1155.7344,111.5156 C1156,111.5156 1156.2656,111.375 1156.4375,111.1563 C1156.5469,111 1156.5781,110.8125 1156.5781,110.3906 L1156.5781,108.9688 C1156.5781,108.5313 1156.5625,108.4063 1156.4688,108.25 C1156.3125,107.9844 1156.0313,107.8438 1155.7344,107.8438 C1155.4375,107.8438 1155.2344,107.9375 1155.0156,108.25 L1154.8438,108.1719 Z " fill="#000000"/><text fill="#000000" font-family="sans-serif" font-size="14" lengthAdjust="spacing" textLength="64" x="1166.5" y="117.3467">wxFrame</text><line style="stroke:#181818;stroke-width:0.5;" x1="1138.5" x2="1232.5" y1="128.5" y2="128.5"/><line style="stroke:#181818;stroke-width:0.5;" x1="1138.5" x2="1232.5" y1="136.5" y2="136.5"/></g><!--MD5=[22bd1b67cb53ad6c9c47d1b608310931]
class client_request--><g id="elem_client_request"><rect codeLine="169" fill="#F1F1F1" height="80.5938" id="client_request" rx="3.5" ry="3.5" style="stroke:#181818;stroke-width:0.5;" width="151" x="961" y="863.5"/><ellipse cx="983.2" cy="879.5" fill="#ADD1B2" rx="11" ry="11" style="stroke:#181818;stroke-width:1.0;"/><path d="M985.5438,875.1719 C984.6063,874.7344 984.0125,874.5938 983.1375,874.5938 C980.5125,874.5938 978.5125,876.6719 978.5125,879.3906 L978.5125,880.5156 C978.5125,883.0938 980.6219,884.9844 983.5125,884.9844 C984.7313,884.9844 985.8875,884.6875 986.6375,884.1406 C987.2156,883.7344 987.5438,883.2813 987.5438,882.8906 C987.5438,882.4375 987.1531,882.0469 986.6844,882.0469 C986.4656,882.0469 986.2625,882.125 986.075,882.3125 C985.6219,882.7969 985.6219,882.7969 985.4344,882.8906 C985.0125,883.1563 984.325,883.2813 983.5594,883.2813 C981.5125,883.2813 980.2156,882.1875 980.2156,880.4844 L980.2156,879.3906 C980.2156,877.6094 981.4656,876.2969 983.2,876.2969 C983.7781,876.2969 984.3875,876.4531 984.8563,876.7031 C985.3406,876.9844 985.5125,877.2031 985.6063,877.6094 C985.6688,878.0156 985.7,878.1406 985.8406,878.2656 C985.9813,878.4063 986.2156,878.5156 986.4344,878.5156 C986.7,878.5156 986.9656,878.375 987.1375,878.1563 C987.2469,878 987.2781,877.8125 987.2781,877.3906 L987.2781,875.9688 C987.2781,875.5313 987.2625,875.4063 987.1688,875.25 C987.0125,874.9844 986.7313,874.8438 986.4344,874.8438 C986.1375,874.8438 985.9344,874.9375 985.7156,875.25 L985.5438,875.1719 Z " fill="#000000"/><text fill="#000000" font-family="sans-serif" font-size="14" lengthAdjust="spacing" textLength="103" x="998.8" y="884.3467">client_request</text><line style="stroke:#181818;stroke-width:0.5;" x1="962" x2="1111" y1="895.5" y2="895.5"/><text fill="#000000" font-family="sans-serif" font-size="14" lengthAdjust="spacing" textLength="111" x="967" y="912.4951">string player_id</text><text fill="#000000" font-family="sans-serif" font-size="14" lengthAdjust="spacing" textLength="139" x="967" y="928.792">enum RequestType</text><line style="stroke:#181818;stroke-width:0.5;" x1="962" x2="1111" y1="936.0938" y2="936.0938"/></g><!--MD5=[f3998a2a9ecb9e6f502fc9359fb583cc]
class server_response--><g id="elem_server_response"><rect codeLine="183" fill="#F1F1F1" height="64.2969" id="server_response" rx="3.5" ry="3.5" style="stroke:#181818;stroke-width:0.5;" width="162" x="297.5" y="592"/><ellipse cx="317.9" cy="608" fill="#ADD1B2" rx="11" ry="11" style="stroke:#181818;stroke-width:1.0;"/><path d="M320.2438,603.6719 C319.3063,603.2344 318.7125,603.0938 317.8375,603.0938 C315.2125,603.0938 313.2125,605.1719 313.2125,607.8906 L313.2125,609.0156 C313.2125,611.5938 315.3219,613.4844 318.2125,613.4844 C319.4313,613.4844 320.5875,613.1875 321.3375,612.6406 C321.9156,612.2344 322.2438,611.7813 322.2438,611.3906 C322.2438,610.9375 321.8531,610.5469 321.3844,610.5469 C321.1656,610.5469 320.9625,610.625 320.775,610.8125 C320.3219,611.2969 320.3219,611.2969 320.1344,611.3906 C319.7125,611.6563 319.025,611.7813 318.2594,611.7813 C316.2125,611.7813 314.9156,610.6875 314.9156,608.9844 L314.9156,607.8906 C314.9156,606.1094 316.1656,604.7969 317.9,604.7969 C318.4781,604.7969 319.0875,604.9531 319.5563,605.2031 C320.0406,605.4844 320.2125,605.7031 320.3063,606.1094 C320.3688,606.5156 320.4,606.6406 320.5406,606.7656 C320.6813,606.9063 320.9156,607.0156 321.1344,607.0156 C321.4,607.0156 321.6656,606.875 321.8375,606.6563 C321.9469,606.5 321.9781,606.3125 321.9781,605.8906 L321.9781,604.4688 C321.9781,604.0313 321.9625,603.9063 321.8688,603.75 C321.7125,603.4844 321.4313,603.3438 321.1344,603.3438 C320.8375,603.3438 320.6344,603.4375 320.4156,603.75 L320.2438,603.6719 Z " fill="#000000"/><text fill="#000000" font-family="sans-serif" font-size="14" lengthAdjust="spacing" textLength="118" x="333.1" y="612.8467">server_response</text><line style="stroke:#181818;stroke-width:0.5;" x1="298.5" x2="458.5" y1="624" y2="624"/><text fill="#000000" font-family="sans-serif" font-size="14" lengthAdjust="spacing" textLength="150" x="303.5" y="640.9951">enum ResponseType</text><line style="stroke:#181818;stroke-width:0.5;" x1="298.5" x2="458.5" y1="648.2969" y2="648.2969"/></g><!--MD5=[ce248cda9f7c4ebe0bd962072ac68099]
link BlackJack to GameControl--><g id="link_BlackJack_GameControl"><path codeLine="127" d="M1041.99,152.56 C1038.8,241.288 1037.39,502.025 1117.5,697 C1140.23,752.333 1187.06,797.944 1233.29,832.058 " fill="none" id="BlackJack-to-GameControl" style="stroke:#454645;stroke-width:1.0;stroke-dasharray:7.0,7.0;"/><polygon fill="#454645" points="1237.48,835.115,1232.5634,826.5811,1233.4395,832.1697,1227.8509,833.0459,1237.48,835.115" style="stroke:#454645;stroke-width:1.0;"/></g><!--MD5=[5babaa165cb6a9d0fc839b50fc99ac78]
link BlackJack to GUI_Window--><g id="link_BlackJack_GUI_Window"><path codeLine="128" d="M1059.93,152.74 C1085.14,200.667 1133.46,292.543 1162.25,347.29 " fill="none" id="BlackJack-to-GUI_Window" style="stroke:#454645;stroke-width:1.0;stroke-dasharray:7.0,7.0;"/><polygon fill="#454645" points="1164.63,351.818,1163.9844,341.9903,1162.3042,347.3919,1156.9026,345.7117,1164.63,351.818" style="stroke:#454645;stroke-width:1.0;"/></g><!--MD5=[c48a1d1149372c2eede02fe5befebff6]
link GUI_Window to ConnectionPanel--><g id="link_GUI_Window_ConnectionPanel"><path codeLine="130" d="M1215.09,433.214 C1238.33,464.407 1271.39,508.774 1299.7,546.767 " fill="none" id="GUI_Window-to-ConnectionPanel" style="stroke:#454645;stroke-width:1.0;"/><polygon fill="#454645" points="1302.77,550.894,1300.6062,541.2858,1299.7851,546.8827,1294.1882,546.0616,1302.77,550.894" style="stroke:#454645;stroke-width:1.0;"/><text fill="#000000" font-family="sans-serif" font-size="13" lengthAdjust="spacing" textLength="24" x="1193.7835" y="452.7049">0..1</text><text fill="#000000" font-family="sans-serif" font-size="13" lengthAdjust="spacing" textLength="24" x="1272.2997" y="540.0435">0..1</text></g><!--MD5=[b0b774bc17f1ddbe680fb7c21083e3c7]
link GUI_Window to MainGamePanel--><g id="link_GUI_Window_MainGamePanel"><path codeLine="131" d="M1260.06,433.148 C1318.85,464.612 1402.77,509.975 1475.5,551 C1479.78,553.416 1484.14,555.891 1488.54,558.401 " fill="none" id="GUI_Window-to-MainGamePanel" style="stroke:#454645;stroke-width:1.0;"/><polygon fill="#454645" points="1492.95,560.922,1487.1271,552.9788,1488.6109,558.4376,1483.1521,559.9214,1492.95,560.922" style="stroke:#454645;stroke-width:1.0;"/><text fill="#000000" font-family="sans-serif" font-size="13" lengthAdjust="spacing" textLength="24" x="1245.6395" y="452.6288">0..1</text><text fill="#000000" font-family="sans-serif" font-size="13" lengthAdjust="spacing" textLength="24" x="1461.0521" y="553.2351">0..1</text></g><!--MD5=[4ed7ed9cff8df5abd66418194ee265ba]
link GUI_Window to GameControl--><g id="link_GUI_Window_GameControl"><path codeLine="132" d="M1167.09,433.068 C1142.11,492.712 1104.69,608.119 1142.5,697 C1160.95,740.376 1193.51,779.039 1227.75,810.825 " fill="none" id="GUI_Window-to-GameControl" style="stroke:#454645;stroke-width:1.0;"/><polygon fill="#454645" points="1237.44,819.606,1235.6792,812.6132,1228.547,811.549,1230.3078,818.5418,1237.44,819.606" style="stroke:#454645;stroke-width:1.0;"/><text fill="#000000" font-family="sans-serif" font-size="13" lengthAdjust="spacing" textLength="94" x="1143.5" y="628.5669">Game Window</text><text fill="#000000" font-family="sans-serif" font-size="13" lengthAdjust="spacing" textLength="8" x="1155.6585" y="452.5366">1</text><text fill="#000000" font-family="sans-serif" font-size="13" lengthAdjust="spacing" textLength="8" x="1221.5565" y="810.7947">1</text></g><!--MD5=[cae5ddf8643888a8ab5ab53c2d996e13]
link ConnectionPanel to GameControl--><g id="link_ConnectionPanel_GameControl"><path codeLine="134" d="M1356.5,710.566 C1356.5,726.558 1356.5,761.96 1356.5,761.96 " fill="none" id="ConnectionPanel-GameControl" style="stroke:#454645;stroke-width:1.0;"/><polygon fill="#454645" points="1356.5,773.96,1360.5,767.96,1356.5,761.96,1352.5,767.96,1356.5,773.96" style="stroke:#454645;stroke-width:1.0;"/><polygon fill="#454645" points="1356.5,697.316,1352.5,706.316,1356.5,702.316,1360.5,706.316,1356.5,697.316" style="stroke:#454645;stroke-width:1.0;"/><line style="stroke:#454645;stroke-width:1.0;" x1="1356.5" x2="1356.5" y1="702.316" y2="710.3155"/><text fill="#000000" font-family="sans-serif" font-size="13" lengthAdjust="spacing" textLength="109" x="1357.5" y="740.0669">connection Panel</text><text fill="#000000" font-family="sans-serif" font-size="13" lengthAdjust="spacing" textLength="8" x="1348.1313" y="716.8493">1</text><text fill="#000000" font-family="sans-serif" font-size="13" lengthAdjust="spacing" textLength="8" x="1348.2688" y="763.0833">1</text></g><!--MD5=[0b7ef76e01b7a95c3b8fef0218a2fc95]
link MainGamePanel to GameControl--><g id="link_MainGamePanel_GameControl"><path codeLine="135" d="M1534.23,698.832 C1516.69,718.982 1476.6815,764.9431 1476.6815,764.9431 " fill="none" id="MainGamePanel-GameControl" style="stroke:#454645;stroke-width:1.0;"/><polygon fill="#454645" points="1468.8,773.992,1475.757,772.0947,1476.6815,764.9431,1469.7245,766.8404,1468.8,773.992" style="stroke:#454645;stroke-width:1.0;"/><polygon fill="#454645" points="1542.98,688.779,1534.0556,692.9449,1539.6988,692.5517,1540.092,698.1949,1542.98,688.779" style="stroke:#454645;stroke-width:1.0;"/><line style="stroke:#454645;stroke-width:1.0;" x1="1539.6988" x2="1534.445" y1="692.5517" y2="698.5845"/><text fill="#000000" font-family="sans-serif" font-size="13" lengthAdjust="spacing" textLength="114" x="1506.5" y="740.0669">main Game Panel</text><text fill="#000000" font-family="sans-serif" font-size="13" lengthAdjust="spacing" textLength="8" x="1528.098" y="709.1828">1</text><text fill="#000000" font-family="sans-serif" font-size="13" lengthAdjust="spacing" textLength="8" x="1467.0611" y="763.1171">1</text></g><!--MD5=[c6e276a9525332c02d68114510f4b6c5]
link ClientNetworkManager to GameControl--><g id="link_ClientNetworkManager_GameControl"><path codeLine="137" d="M1739.42,686.605 C1733.36,690.133 1727.36,693.619 1721.5,697 C1639.73,744.196 1547.09,796.469 1475.6,836.548 " fill="none" id="ClientNetworkManager-GameControl" style="stroke:#454645;stroke-width:1.0;stroke-dasharray:7.0,7.0;"/></g><!--MD5=[ffbe659ec8339ae2ca042711bbed79ca]
link ClientNetworkManager to ResponseListenerThread--><g id="link_ClientNetworkManager_ResponseListenerThread"><path codeLine="138" d="M1843.5,688.779 C1843.5,736.549 1843.5,801.281 1843.5,847.048 " fill="none" id="ClientNetworkManager-ResponseListenerThread" style="stroke:#454645;stroke-width:1.0;"/><text fill="#000000" font-family="sans-serif" font-size="13" lengthAdjust="spacing" textLength="8" x="1835.0375" y="709.1828">1</text><text fill="#000000" font-family="sans-serif" font-size="13" lengthAdjust="spacing" textLength="24" x="1818.0375" y="836.2565">0..1</text></g><!--MD5=[041caaf7b517d1189cdd1f5684633739]
link wxPanel to MainGamePanel--><g id="link_wxPanel_MainGamePanel"><path codeLine="142" d="M1598.5,416.769 C1598.5,445.396 1598.5,495.58 1598.5,539.274 " fill="none" id="wxPanel-to-MainGamePanel" style="stroke:#454645;stroke-width:1.0;"/><polygon fill="none" points="1605.5,539.435,1598.5,559.435,1591.5,539.434,1605.5,539.435" style="stroke:#454645;stroke-width:1.0;"/></g><!--MD5=[9cd217e5654c20f05f1b8a6d5f2c39da]
link wxPanel to ConnectionPanel--><g id="link_wxPanel_ConnectionPanel"><path codeLine="143" d="M1573.96,416.769 C1544.25,444.943 1492.53,493.998 1446.98,537.197 " fill="none" id="wxPanel-to-ConnectionPanel" style="stroke:#454645;stroke-width:1.0;"/><polygon fill="none" points="1451.77,542.299,1432.44,550.983,1442.14,532.141,1451.77,542.299" style="stroke:#454645;stroke-width:1.0;"/></g><!--MD5=[c624fb14a81251094b3f76fff6203d0c]
link wxPanel to BetPanel--><g id="link_wxPanel_BetPanel"><path codeLine="144" d="M1643.74,409.339 C1714.51,434.896 1854.76,488.714 1965.5,551 C1968.7,552.802 1971.93,554.684 1975.16,556.627 " fill="none" id="wxPanel-to-BetPanel" style="stroke:#454645;stroke-width:1.0;"/><polygon fill="none" points="1979.2,550.902,1992.38,567.495,1971.73,562.742,1979.2,550.902" style="stroke:#454645;stroke-width:1.0;"/></g><!--MD5=[dc9c5a605338aa50f94d9669271904ee]
link wxFrame to GUI_Window--><g id="link_wxFrame_GUI_Window"><path codeLine="145" d="M1185.5,144.52 C1185.5,185.522 1185.5,272.421 1185.5,331.406 " fill="none" id="wxFrame-to-GUI_Window" style="stroke:#454645;stroke-width:1.0;"/><polygon fill="none" points="1192.5,331.738,1185.5,351.738,1178.5,331.738,1192.5,331.738" style="stroke:#454645;stroke-width:1.0;"/></g><!--MD5=[3fad6029f71c3a0614ce6a87e071f343]
link game_manager to request_handler--><g id="link_game_manager_request_handler"><path codeLine="151" d="M624.582,120.5 C636.17,120.5 647.758,120.5 659.346,120.5 " fill="none" id="game_manager-request_handler" style="stroke:#454645;stroke-width:1.0;stroke-dasharray:7.0,7.0;"/></g><!--MD5=[54c3862c781681611072aa407a36a609]
link request_handler to player_manager--><g id="link_request_handler_player_manager"><path codeLine="152" d="M789.723,152.74 C785.683,198.189 778.13,283.158 773.21,338.51 " fill="none" id="request_handler-to-player_manager" style="stroke:#454645;stroke-width:1.0;stroke-dasharray:7.0,7.0;"/><polygon fill="#454645" points="772.742,343.772,777.5235,335.1617,773.1849,338.7917,769.5549,334.4531,772.742,343.772" style="stroke:#454645;stroke-width:1.0;"/></g><!--MD5=[76f44e30b63ae6973a3c19a998a282d3]
reverse link request_handler to server_network_manager--><g id="link_request_handler_server_network_manager"><path codeLine="153" d="M757.916,156.47 C723.368,191.409 668.688,246.703 621.043,294.884 " fill="none" id="request_handler-backto-server_network_manager" style="stroke:#454645;stroke-width:1.0;stroke-dasharray:7.0,7.0;"/><polygon fill="#454645" points="761.611,152.74,752.4388,156.3275,758.0955,156.2955,758.1275,161.9522,761.611,152.74" style="stroke:#454645;stroke-width:1.0;"/></g><!--MD5=[a3dcd5a83ffbff7c5d7b599f1f89067c]
link game_manager to server_network_manager--><g id="link_game_manager_server_network_manager"><path codeLine="154" d="M525.5,234.049 C525.5,252.434 525.5,271.39 525.5,289.501 " fill="none" id="game_manager-to-server_network_manager" style="stroke:#454645;stroke-width:1.0;stroke-dasharray:7.0,7.0;"/><polygon fill="#454645" points="525.5,294.586,529.5,285.586,525.5,289.586,521.5,285.586,525.5,294.586" style="stroke:#454645;stroke-width:1.0;"/></g><!--MD5=[84cf1ba54850d2afbfbb604e637f33a3]
link game_manager to player_manager--><g id="link_game_manager_player_manager"><path codeLine="155" d="M624.688,231.709 C658.348,269.108 694.373,309.137 721.947,339.775 " fill="none" id="game_manager-to-player_manager" style="stroke:#454645;stroke-width:1.0;stroke-dasharray:7.0,7.0;"/><polygon fill="#454645" points="725.609,343.844,722.5593,334.4792,722.2633,340.1283,716.6142,339.8323,725.609,343.844" style="stroke:#454645;stroke-width:1.0;"/></g><!--MD5=[eff95888325d11d789b4bec9bcfc1eed]
link request_handler to client_request--><g id="link_request_handler_client_request"><path codeLine="161" d="M805.413,152.55 C819.54,187.041 842.442,244.527 859.5,295 C931.041,506.686 1000.55,765.49 1026.16,863.158 " fill="none" id="request_handler-client_request" style="stroke:#454645;stroke-width:1.0;stroke-dasharray:7.0,7.0;"/></g><!--MD5=[3da6066e4af01b0380276ecb8cfaa25e]
link server_network_manager to server_response--><g id="link_server_network_manager_server_response"><path codeLine="162" d="M463.585,490.164 C440.202,526.669 415.215,565.68 398.412,591.912 " fill="none" id="server_network_manager-server_response" style="stroke:#454645;stroke-width:1.0;stroke-dasharray:7.0,7.0;"/></g><!--MD5=[702c1279a0ca73c1369464ef20e9ba9b]
reverse link client_request to join_game_request--><g id="link_client_request_join_game_request"><path codeLine="173" d="M1067.28,962.547 C1090.82,1006.553 1122.04,1064.922 1139.09,1096.7934 " fill="none" id="client_request-backto-join_game_request" style="stroke:#454645;stroke-width:1.0;"/><polygon fill="none" points="1060.99,965.622,1057.73,944.685,1073.33,959.019,1060.99,965.622" style="stroke:#454645;stroke-width:1.0;"/></g><!--MD5=[a6e166aeea3561c9e496da8c1582cad9]
reverse link client_request to start_game_request--><g id="link_client_request_start_game_request"><path codeLine="174" d="M1107.98,956.462 C1141.8,980.461 1182.92,1009.144 1220.5,1034 C1253.7,1055.959 1292.19,1079.8178 1320.07,1096.8221 " fill="none" id="client_request-backto-start_game_request" style="stroke:#454645;stroke-width:1.0;"/><polygon fill="none" points="1103.75,962.043,1091.52,944.741,1111.87,950.638,1103.75,962.043" style="stroke:#454645;stroke-width:1.0;"/></g><!--MD5=[1025fbc298462c0ba96019c11ddc188c]
reverse link client_request to make_bet_request--><g id="link_client_request_make_bet_request"><path codeLine="175" d="M1096.55,957.635 C1130.66,984.696 1175.44,1015.744 1220.5,1034 C1322.28,1075.242 1359.49,1040.859 1464.5,1073 C1484.29,1079.0566 1505.18,1088.261 1522.79,1096.9239 " fill="none" id="client_request-backto-make_bet_request" style="stroke:#454645;stroke-width:1.0;"/><polygon fill="none" points="1091.8,962.798,1080.71,944.744,1100.64,951.939,1091.8,962.798" style="stroke:#454645;stroke-width:1.0;"/></g><!--MD5=[a26ba798a44c09748a9e7fcffe6483f8]
reverse link client_request to hit_request--><g id="link_client_request_hit_request"><path codeLine="176" d="M1094.66,957.779 C1128.78,985.498 1174.19,1017.131 1220.5,1034 C1407.46,1102.1057 1477.84,1009.745 1666.5,1073 C1682.53,1078.3734 1698.63,1087.8067 1711.78,1096.8188 " fill="none" id="client_request-backto-hit_request" style="stroke:#454645;stroke-width:1.0;"/><polygon fill="none" points="1089.71,962.768,1078.86,944.568,1098.69,952.028,1089.71,962.768" style="stroke:#454645;stroke-width:1.0;"/></g><!--MD5=[0334a966b628f8e0e10af8c44b194b75]
reverse link client_request to stand_request--><g id="link_client_request_stand_request"><path codeLine="177" d="M1093.71,957.506 C1127.87,985.507 1173.64,1017.508 1220.5,1034 C1345.7,1078.0626 1689.23,1035.334 1816.5,1073 C1834.29,1078.2639 1852.44,1087.7992 1867.3,1096.9121 " fill="none" id="client_request-backto-stand_request" style="stroke:#454645;stroke-width:1.0;"/><polygon fill="none" points="1089.16,962.828,1078.39,944.58,1098.19,952.128,1089.16,962.828" style="stroke:#454645;stroke-width:1.0;"/></g><!--MD5=[f04e3aa9400b323425b3dd1ab8b8e9a1]
reverse link client_request to split_request--><g id="link_client_request_split_request"><path codeLine="178" d="M942.401,942.774 C864.198,975.02 750.589,1023.857 654.5,1073 C640.302,1080.2615 625.121,1088.9356 611.841,1096.8438 " fill="none" id="client_request-backto-split_request" style="stroke:#454645;stroke-width:1.0;"/><polygon fill="none" points="939.833,936.261,960.993,935.145,945.148,949.213,939.833,936.261" style="stroke:#454645;stroke-width:1.0;"/></g><!--MD5=[6c8add9ab33e750d0317489613c9fbd8]
reverse link client_request to double_down_request--><g id="link_client_request_double_down_request"><path codeLine="179" d="M970.803,957.314 C914.912,1001.82 837.276,1063.642 795.643,1096.7934 " fill="none" id="client_request-backto-double_down_request" style="stroke:#454645;stroke-width:1.0;"/><polygon fill="none" points="966.657,951.667,986.66,944.685,975.38,962.619,966.657,951.667" style="stroke:#454645;stroke-width:1.0;"/></g><!--MD5=[022ac5313f51c6ee16248722522968da]
reverse link client_request to insure_request--><g id="link_client_request_insure_request"><path codeLine="180" d="M1016.83,963.729 C1002.14,1007.594 982.85,1065.207 972.272,1096.7934 " fill="none" id="client_request-backto-insure_request" style="stroke:#454645;stroke-width:1.0;"/><polygon fill="none" points="1010.22,961.427,1023.21,944.685,1023.5,965.873,1010.22,961.427" style="stroke:#454645;stroke-width:1.0;"/></g><!--MD5=[cf889fe92fc9e3a2f224c33ab4c242fc]
link answer_rqst_response to server_response--><g id="link_answer_rqst_response_server_response"><path codeLine="186" d="M115.401,1096.8631 C157.704,1020.992 292.844,778.621 351.218,673.929 " fill="none" id="answer_rqst_response-to-server_response" style="stroke:#454645;stroke-width:1.0;"/><polygon fill="none" points="345.172,670.399,361.026,656.34,357.4,677.217,345.172,670.399" style="stroke:#454645;stroke-width:1.0;"/></g><!--MD5=[4bfb964982e062823bd99725dcd12725]
link change_gemestate_response to server_response--><g id="link_change_gemestate_response_server_response"><path codeLine="187" d="M355.622,1096.8631 C359.27,1021.621 370.857,782.628 376,676.561 " fill="none" id="change_gemestate_response-to-server_response" style="stroke:#454645;stroke-width:1.0;"/><polygon fill="none" points="369.02,675.977,376.98,656.34,383.004,676.656,369.02,675.977" style="stroke:#454645;stroke-width:1.0;"/></g><!--MD5=[5fd9800ccbda968a49d61fcd248cfbbf]
link server_response to client_request--><!--MD5=[d546a53ea006e10cebb5f680093f7287]
@startuml
!theme vibrant
' !theme plain

page 2x1

class BlackJack{
    - -
    OnInit(): void
}

class GameControl{
    my_id: int 
    currentGameState: GameState
    - -
    init(): void
    connectToServer(): void
    updateGameState(): void
    startGame(): void
    hit(): void
    stand(): void
    split(): void
    double_down(): void
    insure(): void
    showNewRoundMessage(): void
    showGameOverMessage(): void
}
class GUI_Window{
    currentPanel: wxPanel
    - -
    showPanel(): void
}



class ConnectionPanel{
    serverAddress: string
    serverPort: string
    playerName: string
    - -
    getServerAddress(): string
    getServerPort(): string
    getPlayer(): string
}

class BetPanel{
    betSize: int
    playerMoney: int
    - -
    getBetSize(): int
    getPlayerMoney(): int
}

Class MainGamePanel{
    - -
    buildGameController(): void
    buildOthers(): void
    buildRoundCounter(): void
    buildMyself(): void

}



Class ClientNetworkManager{
    is_connected: bool
    connection: tcp_connector 
    - -
    init(): int
    sendRequest(): void
    parseResponse(): void 
}

Class ResponseListenerThread{
    connector: tcp_connector
    - - 
    entry(): void
    outputError: void
}

' =======================================
Class server_network_manager{
    acc: tcp_acceptor
    player_id_to_address: map
    address_to_socket: map
    - -
    listener_loop(): void
    handle_incoming_message(): void
    read_message(): void
    send_message(): void
    broadcast_message(): void
    on_player_left(): void
}

Class player_manager{
    player_map: map
    - -
    get_player(): bool
    add_player(): bool
}

Class game_manager{
    game_state: GameState
    - -
    is_started(): bool  
    is_finished(): bool
    start_game(): bool
    add_player(): bool
    try_remove_player(): bool
    hit(): bool
    stand(): bool
    split(): bool
    double_down(): bool
    insure(): bool
}

Class request_handler{
    handle_request: request_response*

}


' ===============================

' the following is exactly the same as in 
' the example client package

BlackJack ..> GameControl
BlackJack ..> GUI_Window

GUI_Window "0..1" - -> "0..1" ConnectionPanel
GUI_Window "0..1" - -> "0..1" MainGamePanel
GUI_Window "1" - -* "1" GameControl : "Game Window"

ConnectionPanel "1" <- -* "1" GameControl :  "connection Panel"
MainGamePanel "1" <- -* "1" GameControl : "main Game Panel"

ClientNetworkManager .. GameControl
ClientNetworkManager "1" - - "0..1" ResponseListenerThread

' ============================
' Additional
wxPanel - -|> MainGamePanel
wxPanel - -|> ConnectionPanel
wxPanel - -|> BetPanel
wxFrame - -|> GUI_Window


' ======
' this is the same as in example server package but we combined
' game_instance and game_instance_manager to game_manager
request_handler .left. game_manager
request_handler ..> player_manager
request_handler <.. server_network_manager
game_manager ..> server_network_manager
game_manager ..> player_manager

' ===========



request_handler .. client_request
server_network_manager .. server_response

' ===========================

' package STUUFFFF <<Folder>> {
together {

class client_request{
string player_id
enum RequestType
}
client_request <|- - join_game_request
client_request <|- - start_game_request
client_request <|- - make_bet_request
client_request <|- - hit_request
client_request <|- - stand_request
client_request <|- - split_request
client_request <|- - double_down_request
client_request <|- - insure_request


class server_response{
enum ResponseType
}
server_response <|-up-  answer_rqst_response
server_response <|-up-  change_gemestate_response

}
server_response .down[hidden]. client_request
@enduml

@startuml
skinparam BackgroundColor FFFFFF
skinparam shadowing false
skinparam RoundCorner 7
skinparam ArrowColor 454645
skinparam FontColor 454645
skinparam SequenceLifeLineBorderColor 696969
skinparam SequenceGroupHeaderFontColor 454645
skinparam SequenceGroupFontColor 696969
skinparam SequenceGroupBorderColor 696969
skinparam SequenceGroupBorderThickness 1

skinparam sequenceDivider {
    BorderColor 454645
    BorderThickness 1
    FontColor 454645
}

skinparam participant {
    BackgroundColor FF6347
    BorderColor 454645
    FontColor FFFFFF
    BorderThickness 1.5
}

skinparam database {
    BackgroundColor 00FFFF
    BorderColor 454645
    FontColor 454645
}

skinparam entity {
    BackgroundColor FFE552
    BorderColor 454645
    FontColor 454645
}

skinparam note {
    BackgroundColor 7FFFD4
    BorderColor 454645
    FontColor 454645
    BorderThickness 1.5
}

skinparam actor {
    BackgroundColor 454645
    BorderColor 454645
    FontColor 454645
}

skinparam boundary {
    BackgroundColor FFE552
    BorderColor 454645
    FontColor 454645
}

skinparam control {
    BackgroundColor FFE552
    BorderColor 454645
    FontColor 454645
}

skinparam collections {
    BackgroundColor FF5F42
    BorderColor 454645
    FontColor 454645
}

skinparam queue {
    BackgroundColor FF6347
    BorderColor 454645
    FontColor FFF
    BorderThickness 1.5
}

page 2x1

class BlackJack{
    - -
    OnInit(): void
}

class GameControl{
    my_id: int 
    currentGameState: GameState
    - -
    init(): void
    connectToServer(): void
    updateGameState(): void
    startGame(): void
    hit(): void
    stand(): void
    split(): void
    double_down(): void
    insure(): void
    showNewRoundMessage(): void
    showGameOverMessage(): void
}
class GUI_Window{
    currentPanel: wxPanel
    - -
    showPanel(): void
}



class ConnectionPanel{
    serverAddress: string
    serverPort: string
    playerName: string
    - -
    getServerAddress(): string
    getServerPort(): string
    getPlayer(): string
}

class BetPanel{
    betSize: int
    playerMoney: int
    - -
    getBetSize(): int
    getPlayerMoney(): int
}

Class MainGamePanel{
    - -
    buildGameController(): void
    buildOthers(): void
    buildRoundCounter(): void
    buildMyself(): void

}



Class ClientNetworkManager{
    is_connected: bool
    connection: tcp_connector 
    - -
    init(): int
    sendRequest(): void
    parseResponse(): void 
}

Class ResponseListenerThread{
    connector: tcp_connector
    - - 
    entry(): void
    outputError: void
}

Class server_network_manager{
    acc: tcp_acceptor
    player_id_to_address: map
    address_to_socket: map
    - -
    listener_loop(): void
    handle_incoming_message(): void
    read_message(): void
    send_message(): void
    broadcast_message(): void
    on_player_left(): void
}

Class player_manager{
    player_map: map
    - -
    get_player(): bool
    add_player(): bool
}

Class game_manager{
    game_state: GameState
    - -
    is_started(): bool  
    is_finished(): bool
    start_game(): bool
    add_player(): bool
    try_remove_player(): bool
    hit(): bool
    stand(): bool
    split(): bool
    double_down(): bool
    insure(): bool
}

Class request_handler{
    handle_request: request_response*

}




BlackJack ..> GameControl
BlackJack ..> GUI_Window

GUI_Window "0..1" - -> "0..1" ConnectionPanel
GUI_Window "0..1" - -> "0..1" MainGamePanel
GUI_Window "1" - -* "1" GameControl : "Game Window"

ConnectionPanel "1" <- -* "1" GameControl :  "connection Panel"
MainGamePanel "1" <- -* "1" GameControl : "main Game Panel"

ClientNetworkManager .. GameControl
ClientNetworkManager "1" - - "0..1" ResponseListenerThread

wxPanel - -|> MainGamePanel
wxPanel - -|> ConnectionPanel
wxPanel - -|> BetPanel
wxFrame - -|> GUI_Window


request_handler .left. game_manager
request_handler ..> player_manager
request_handler <.. server_network_manager
game_manager ..> server_network_manager
game_manager ..> player_manager




request_handler .. client_request
server_network_manager .. server_response


together {

class client_request{
string player_id
enum RequestType
}
client_request <|- - join_game_request
client_request <|- - start_game_request
client_request <|- - make_bet_request
client_request <|- - hit_request
client_request <|- - stand_request
client_request <|- - split_request
client_request <|- - double_down_request
client_request <|- - insure_request


class server_response{
enum ResponseType
}
server_response <|-up-  answer_rqst_response
server_response <|-up-  change_gemestate_response

}
server_response .down[hidden]. client_request
@enduml

PlantUML version 1.2022.3beta2(Unknown compile time)
(GPL source distribution)
Java Runtime: Java(TM) SE Runtime Environment
JVM: Java HotSpot(TM) 64-Bit Server VM
Default Encoding: UTF-8
Language: en
Country: US
--></g></svg>